<svg
  xmlns="http://www.w3.org/2000/svg"
  viewBox="0 0 1343 569"
  width="1343"
  height="569"
>
  <!--
    Layer order:
    1) stroke-only contour lines (construction guides),
    2) filled artwork from back to front,
    3) lower wordmark drawn as path outlines.
  -->
  <!-- Outline pass for car/body contours and small detail lines. -->
  <g stroke-width="2" fill="none" stroke-linecap="butt">
    <path
      d="M 492.24 385.91Q 500.4 389.22 511 388.57Q 519.72 388.03 526.02 384.95"
      stroke="rgba(127,123,75,1)"
      vector-effect="non-scaling-stroke"
    />
    <path
      d="M 526.02 384.95Q 670.12 381.99 813.81 384.85C 817.25 384.92 822.22 385.34 826.57 385.29"
      stroke="rgba(187,182,146,1)"
      vector-effect="non-scaling-stroke"
    />
    <path
      d="M 826.57 385.29Q 828.87 386.89 832.59 387.41Q 846.59 389.34 859.57 385.72"
      stroke="rgba(127,123,75,1)"
      vector-effect="non-scaling-stroke"
    />
    <path
      d="M 859.57 385.72L 869.8 386.1A 3.88 3.83 -61.52 0 0 872.2 385.37C 881.3 378.77 888.74 366.03 890.11 355.42A 2.46 2.37 -27.59 0 1 890.4 354.55Q 891 353.52 893.06 352.79Q 897.76 351.12 899.17 351.21A 0.95 0.94 77.57 0 1 899.95 351.71C 903.85 358.99 914.36 356.77 920.77 353.75C 925.08 351.72 929.68 349.79 929.73 345.22Q 929.87 333.93 930.11 324.75C 930.27 318.59 930.44 312.65 924.17 310.33Q 918.11 308.08 914 313.46A 0.44 0.44 -28.03 0 1 913.21 313.22Q 912.65 303.56 908.81 294.61A 1.09 1.08 48.92 0 1 908.87 293.61C 912.16 288.15 911.54 274.43 908.04 269.55C 905.55 266.09 902.58 265.45 898.5 265.72Q 893.32 266.06 889.64 267.09A 1.01 1.01 53.77 0 1 888.8 266.96L 877.82 259.69A 0.73 0.73 -69.97 0 1 877.49 258.98C 880.76 233.32 877.63 205.92 869.97 181.98Q 864.76 165.71 861.75 159.01Q 834.11 97.54 776.78 63.16C 768.6 58.26 757.77 53.01 749.4 49.65Q 678.78 21.38 606.33 44.58C 567.06 57.15 531.98 82.82 506.99 114.81C 479.16 150.44 463.95 194.84 463.51 239.98A 5.33 5.22 -28.66 0 1 462.64 242.84Q 452.42 258.43 440.7 279.42Q 435.24 289.2 432.25 294.42A 3.22 3.19 -80.15 0 1 430.06 295.98C 426.7 296.61 424.02 296.71 422.55 299.3C 420.15 303.54 420.67 309.63 420.68 314.19A 1.49 1.48 81.19 0 1 419.65 315.61C 412.69 317.87 411.72 320.87 412.21 328.02Q 412.45 331.44 412.31 336.54A 3.29 3.15 -56.28 0 0 412.54 337.84C 414.83 343.54 421.41 344.35 426.94 343.87Q 430.91 343.53 432.36 339.88A 0.64 0.62 -75.6 0 1 433.02 339.48L 460.59 343.13A 0.9 0.9 -84.81 0 1 461.37 344.07Q 460.21 367.14 476.81 382.96Q 479.44 385.47 481.43 385.87Q 485.18 386.62 492.24 385.91"
      stroke="rgba(187,182,146,1)"
      vector-effect="non-scaling-stroke"
    />
    <path
      d="M 859.57 385.72Q 865.92 382.91 867.73 381.48Q 873.25 377.11 877.63 370.98C 888.62 355.61 885.88 333.31 873.01 320.09Q 868.3 315.24 861.65 311.95Q 844.65 303.55 828.23 310.87Q 817.47 315.67 811.25 323.71C 800.33 337.84 799.93 356.79 809.95 371.27Q 816.03 380.06 826.57 385.29"
      stroke="rgba(182,179,135,1)"
      vector-effect="non-scaling-stroke"
    />
    <path
      d="M 526.02 384.95Q 532.26 381.48 535.92 378.17Q 549.5 365.88 549.08 347Q 549.03 344.63 548.48 343.14"
      stroke="rgba(182,179,135,1)"
      vector-effect="non-scaling-stroke"
    />
    <path
      d="M 548.48 343.14Q 548.27 342.44 548.47 341.85A 0.76 0.75 9 0 1 549.19 341.33Q 554.96 341.41 561.91 341.69C 563.48 341.75 565.44 341.3 567.25 341.34Q 596.29 341.96 635 343.56Q 660.5 344.62 762.07 346.96"
      stroke="rgba(212,170,134,1)"
      vector-effect="non-scaling-stroke"
    />
    <path
      d="M 762.07 346.96Q 762.48 349.83 763.58 351.33A 2.77 2.75 -55.61 0 1 764.02 353.71C 763.03 357.37 761.07 362.21 761.4 365.99A 3.01 2.99 4.71 0 0 763.64 368.62C 767.81 369.68 776.28 369.49 779.16 364.9Q 781.87 360.57 783.97 354.99Q 789.87 339.28 795.03 323.16"
      stroke="rgba(182,179,135,1)"
      vector-effect="non-scaling-stroke"
    />
    <path
      d="M 795.03 323.16C 803.1 309.23 816.52 294.13 833.13 290.57C 850.14 286.92 866.11 292.18 877.83 304.71C 883.26 310.5 887.71 321.77 890.58 327.69C 894.12 334.97 897.65 340.19 905.28 342.32A 1.11 1.1 8.42 0 1 906.09 343.41L 905.93 349.04A 1.36 1.36 -84.49 0 0 907.07 350.43C 912.54 351.33 918.1 348.6 922.77 346.04A 2.7 2.67 -14.94 0 0 924.16 343.66Q 923.89 327.29 923.83 318.01Q 923.83 316.57 922.69 315.73A 1.69 1.66 30.32 0 0 920.15 316.37C 917.03 323.4 913.94 329.89 909.06 335.49A 0.59 0.59 -25.37 0 1 908.02 335.12Q 907.89 330.76 908.13 325C 908.55 314.87 907.03 304.93 902.15 294.83A 0.99 0.98 -35.67 0 1 902.34 293.7C 906.36 289.76 905.32 278.2 903.76 273.55A 2.88 2.88 80.38 0 0 901 271.59Q 894.48 271.65 888.48 274.07"
      stroke="rgba(212,170,134,1)"
      vector-effect="non-scaling-stroke"
    />
    <path
      d="M 888.48 274.07Q 887.44 274.28 886.54 273.4"
      stroke="rgba(209,195,150,1)"
      vector-effect="non-scaling-stroke"
    />
    <path
      d="M 886.54 273.4C 879.86 267.05 869.84 261.63 862.12 258.65C 849.21 253.66 834.97 250.43 819.65 248.82Q 797.72 246.51 771.99 246.49Q 757.61 246.48 757.48 246.48C 753.78 246.45 751.1 244.82 749 242.01Q 727.41 213.18 713.92 194.41A 6.18 6.04 0.49 0 0 712.47 192.97C 704.87 187.57 696.76 185.08 687.01 182.28C 674.36 178.63 661.76 177.57 647.5 176.79C 616.82 175.13 588.77 175.28 560.32 178.84Q 541.17 181.23 524.16 189.14A 0.66 0.66 7.33 0 1 523.28 188.82C 521.01 183.96 515.56 179.55 510.01 180.79C 502.3 182.52 499.15 188.46 502.02 196.1A 3.12 3.09 8.32 0 0 503.08 197.51L 505.15 199.08A 1.6 1.59 42.57 0 1 505.26 201.54Q 494.43 211.27 486.93 219.91Q 483.04 224.38 474.26 236.16Q 469.69 242.29 462.91 253.36Q 447.23 278.97 435.38 301A 1.92 1.92 -75.11 0 1 433.64 302.01L 429.05 301.88A 2.27 2.26 -85.36 0 0 426.74 303.85C 426.44 306.14 425.43 317.27 427.65 319.29A 0.72 0.72 -32.72 0 1 427.38 320.51Q 426.45 320.8 421.87 321.48C 419.99 321.76 418.19 322.78 418.43 324.76Q 419.16 330.86 418 335.09A 2.02 2.02 11.6 0 0 419.68 337.63L 424.63 338.28A 2.17 2.17 6.33 0 0 427.08 336.32Q 427.26 334.33 426.91 332.9A 0.65 0.65 -1.14 0 1 427.67 332.11Q 448.33 336.3 468.98 337.78"
      stroke="rgba(212,170,134,1)"
      vector-effect="non-scaling-stroke"
    />
    <path
      d="M 468.98 337.78C 468.56 340.18 467.92 342.45 467.79 344.72Q 466.12 373.18 492.24 385.91"
      stroke="rgba(182,179,135,1)"
      vector-effect="non-scaling-stroke"
    />
    <path
      d="M 483.76 339.28Q 478.79 355.16 490.33 366.7Q 496.89 373.27 505.25 374.03C 523.53 375.69 537.99 359.81 533.39 341.48"
      stroke="rgba(182,179,135,1)"
      vector-effect="non-scaling-stroke"
    />
    <path
      d="M 886.54 273.4Q 883.37 274.91 881.36 277.1C 877.07 281.78 882.59 288.47 886.57 291.1C 889.47 293.02 890.93 294.02 894.17 293.82A 0.63 0.62 -37.69 0 0 894.33 292.6C 889.28 290.97 885.5 290.32 883.25 284.83Q 882.38 282.73 882.98 280.66C 884.02 277.05 886.2 276.25 888.48 274.07"
      stroke="rgba(178,128,78,1)"
      vector-effect="non-scaling-stroke"
    />
    <path
      d="M 795.03 323.16Q 791.77 326.27 790.39 329.81Q 789.52 332.03 787.55 333.38Q 781.91 337.23 776.14 341.87Q 770.55 346.36 762.07 346.96"
      stroke="rgba(152,111,63,1)"
      vector-effect="non-scaling-stroke"
    />
    <path
      d="M 548.48 343.14Q 541.24 340.99 533.39 341.48"
      stroke="rgba(152,111,63,1)"
      vector-effect="non-scaling-stroke"
    />
    <path
      d="M 533.39 341.48Q 527.5 340.55 521.56 341.33"
      stroke="rgba(212,170,134,1)"
      vector-effect="non-scaling-stroke"
    />
    <path
      d="M 521.56 341.33Q 517.4 340.6 515.24 340.54Q 510.98 340.41 495.5 340.42"
      stroke="rgba(152,111,63,1)"
      vector-effect="non-scaling-stroke"
    />
    <path
      d="M 495.5 340.42Q 490.22 338.59 483.76 339.28"
      stroke="rgba(212,170,134,1)"
      vector-effect="non-scaling-stroke"
    />
    <path
      d="M 483.76 339.28Q 476.42 337.82 468.98 337.78"
      stroke="rgba(152,111,63,1)"
      vector-effect="non-scaling-stroke"
    />
    <path
      d="M 495.5 340.42Q 491.41 348.46 494.9 354.92C 504.26 372.23 529.6 359.97 521.56 341.33"
      stroke="rgba(182,179,135,1)"
      vector-effect="non-scaling-stroke"
    />
    <path
      d="M 769.58 520.54Q 771.5 522.49 773.13 522.87Q 782.55 525.06 794.33 523.33Q 797.29 522.9 799.23 520.65"
      stroke="rgba(127,123,75,1)"
      vector-effect="non-scaling-stroke"
    />
    <path
      d="M 799.23 520.65Q 799.55 518.72 796.5 517.07Q 794.54 516.01 794.03 514.84Q 793.37 513.32 793.36 511.43Q 793.31 483.01 793.35 471.97A 1.29 1.28 -23.86 0 1 793.69 471.1Q 798.95 465.49 806.5 466.17Q 812.35 466.7 813.32 471.71Q 814.04 475.4 813.99 483.25Q 813.91 495.99 813.63 512C 813.56 515.84 811.46 516.75 808.3 518.84A 0.93 0.93 28.19 0 0 808.82 520.55L 837.14 520.56A 0.94 0.94 61.89 0 0 837.66 518.84C 835.6 517.47 832.86 516.25 831.75 513.73A 2.55 2.49 33.04 0 1 831.56 512.88Q 831.13 498.68 831.43 481.01Q 831.53 475.57 830.53 471.49C 826.96 456.84 810.2 455.9 799.46 462.44Q 797.14 463.85 794.03 466.14A 0.45 0.45 72.13 0 1 793.32 465.77L 793.32 434.36A 1.41 1.41 1.27 0 0 791.97 432.95Q 790.81 432.91 790.3 433.04Q 781.59 435.3 773.31 437.3Q 771.02 437.85 769.56 438.93A 1.22 1.22 -58.41 0 0 770.08 441.12Q 773.96 441.77 775.4 445.16A 2.73 2.58 35.17 0 1 775.61 446.19Q 775.69 470.6 775.39 509.55C 775.35 514.13 774.07 516.43 770.41 518.47Q 769.64 518.89 769.4 519.32Q 769 520.02 769.58 520.54"
      stroke="rgba(187,182,146,1)"
      vector-effect="non-scaling-stroke"
    />
    <path
      d="M 799.23 520.65L 769.58 520.54"
      stroke="rgba(182,179,135,1)"
      vector-effect="non-scaling-stroke"
    />
    <path
      d="M 709.69 513.55Q 714.04 520.68 722.37 522.44Q 738.91 525.93 755.87 522.16Q 755.94 522.15 756 522.13C 751.63 523.27 747.37 524.16 742.6 524.67Q 737.49 525.21 724.11 524.38A 0.31 0.31 -84.09 0 0 723.78 524.65L 723.78 524.66A 0.36 0.35 10.31 0 0 724.06 525.06C 736 527.59 753.26 527.49 763.9 520.49A 1.29 1.27 -12.33 0 0 764.46 519.63Q 765.89 510.96 764.44 502.54"
      stroke="rgba(127,123,75,1)"
      vector-effect="non-scaling-stroke"
    />
    <path
      d="M 764.44 502.54Q 764.25 500.11 764.16 498.02A 1.42 1.42 -12.32 0 0 762.2 496.77Q 761.35 497.12 760.77 498.54Q 759.48 501.67 756.11 509.61Q 752.81 517.37 744.45 517.8Q 738.29 518.12 736.21 517.78C 716.38 514.55 713.43 489.14 714.35 473.35C 715.25 457.77 721.44 440.5 739.58 439.85C 745.89 439.62 751.22 442.1 754.3 447.72Q 758.91 456.17 759.51 457.23Q 760.58 459.12 761.96 459.32A 1.14 1.13 -87.05 0 0 763.25 458.15L 762.62 442.99A 1.43 1.43 14.52 0 0 761.93 441.82Q 758.77 439.87 754.7 438.53C 730.54 430.57 703.48 439.73 696.15 465.86C 691.47 482.51 695.65 502.25 709.69 513.55"
      stroke="rgba(187,182,146,1)"
      vector-effect="non-scaling-stroke"
    />
    <path
      d="M 764.44 502.54L 764.13 513.49A 3.68 3.66 -18.83 0 1 762.76 516.26C 760.17 518.36 757.22 519.25 753.94 520.24C 738.77 524.82 722.57 522.88 709.69 513.55"
      stroke="rgba(182,179,135,1)"
      vector-effect="non-scaling-stroke"
    />
    <path
      d="M 179.47 521.2L 174.65 521.27A 0.54 0.54 -31.51 0 0 174.4 522.29Q 176.04 523.14 177.51 523.13C 188.11 523.04 200.46 523.65 211.56 523.33Q 220.98 523.07 228.21 522.96Q 230.65 522.92 232.65 521.8A 0.32 0.32 -59.18 0 0 232.5 521.2L 210.54 521.09"
      stroke="rgba(127,123,75,1)"
      vector-effect="non-scaling-stroke"
    />
    <path
      d="M 210.54 521.09L 232.23 521A 1.84 1.84 -89.2 0 0 234.07 519.21L 234.63 499.33A 1.66 1.65 -11.87 0 0 232.26 497.79Q 230.93 498.41 230.28 500.3Q 228.37 505.84 225.86 510.47C 224.4 513.15 223.01 514.32 220.17 515.2C 213.3 517.34 206.11 516.68 199.11 516.55A 1.41 1.4 -0.21 0 1 197.73 515.19C 197.57 509.41 197.26 503.78 197.36 497.94Q 197.9 462.79 197.78 446.81C 197.75 442.42 201.42 441.86 203.7 440.08A 1.06 1.06 -61.55 0 0 203.14 438.19C 194.68 437.49 185.77 438.01 176.48 438.15Q 174.62 438.18 173.61 438.63A 1.08 1.07 43.64 0 0 173.66 440.62Q 176.67 441.76 177.92 443.39Q 178.78 444.52 178.84 448.16Q 179.24 475.34 178.84 509.25Q 178.77 515.27 173.68 518.17A 1.46 1.46 31.81 0 0 174.32 520.9L 179.47 521.2"
      stroke="rgba(160,128,70,1)"
      vector-effect="non-scaling-stroke"
    />
    <path
      d="M 210.54 521.09L 179.47 521.2"
      stroke="rgba(156,125,59,1)"
      vector-effect="non-scaling-stroke"
    />
    <path
      d="M 388.79 520.91L 385.17 520.99A 0.56 0.55 -36.11 0 0 385 522.07C 388.06 523.1 390.86 523.07 394.09 523.18Q 413.98 523.83 424.63 523.39Q 430.03 523.17 434.92 521.94C 442.77 519.98 447.88 514.65 452.75 508.45A 0.26 0.25 -50.64 0 0 452.72 508.09L 452.71 508.08A 0.26 0.26 41.73 0 0 452.35 508.1C 447.83 513.04 444.14 517.07 438.71 519.25A 0.12 0.11 16.93 0 1 438.6 519.05C 447.99 512.99 455.67 506.02 458.84 494.43Q 459.65 491.51 459.62 490.61A 0.55 0.55 -31.9 0 0 458.58 490.37L 457.96 491.54"
      stroke="rgba(127,123,75,1)"
      vector-effect="non-scaling-stroke"
    />
    <path
      d="M 457.96 491.54Q 459.22 484.49 459.11 477.24C 458.96 467.44 455.71 455.93 448.68 449.4Q 443.21 444.31 436 441.28C 433.49 440.22 428.82 439.69 426.54 438.98Q 424.25 438.27 419.3 438.12Q 396.37 437.4 386.81 438.1Q 386.01 438.16 384.64 438.51A 0.8 0.8 -39.32 0 0 384.49 440.01C 391 443.14 390.65 447.9 390.84 455.03Q 391.02 462.09 390.94 465.5Q 390.53 483.2 390.62 497.58C 390.64 501.03 390.18 506.13 390.04 509.97C 389.89 514.03 387.25 516.74 384.5 519.18A 0.84 0.84 25.97 0 0 385.01 520.65L 388.79 520.91"
      stroke="rgba(160,128,70,1)"
      vector-effect="non-scaling-stroke"
    />
    <path
      d="M 457.96 491.54C 453.65 505.55 444.19 515.82 429.44 518.85Q 426.28 519.49 423.1 520.03Q 420.12 520.54 416.69 520.59Q 402.74 520.83 388.79 520.91"
      stroke="rgba(156,125,59,1)"
      vector-effect="non-scaling-stroke"
    />
    <path
      d="M 305.68 501.73Q 302.94 508.06 303.75 515.05C 305.29 528.44 326.6 526.86 335.64 525.77Q 344.02 524.75 348.8 518.18C 352.94 512.5 354.87 506.27 353.49 499.32A 0.18 0.18 -47.8 0 0 353.13 499.34L 352.51 505.03"
      stroke="rgba(127,123,75,1)"
      vector-effect="non-scaling-stroke"
    />
    <path
      d="M 352.51 505.03Q 352.63 501.55 351.84 497.29Q 350.64 490.89 345.06 487.99C 337.84 484.25 330.86 482.7 324.19 479.58Q 319.51 477.38 318.55 473.18C 317.42 468.24 320.48 464.26 325.28 463.22Q 337.65 460.56 342.29 472.23Q 343.4 475.02 343.97 476.24A 2.09 2.03 63.57 0 0 346.79 477.23Q 347.61 476.79 347.51 475.7Q 346.99 470.18 347.21 464.58A 1.89 1.88 31.26 0 0 346.96 463.57Q 346.31 462.48 344.75 461.84Q 331.56 456.45 318.77 460.44Q 310.39 463.05 306.42 471.34C 303.4 477.64 304.59 485.01 309.31 490.02C 313.54 494.51 321.89 496.9 329.72 499.55C 336.12 501.71 340.93 506.51 337.07 513.48C 333.73 519.51 321.64 519.13 316.96 515.31Q 314.02 512.91 313.23 511.28Q 311.39 507.5 308.73 502.22Q 307.97 500.7 306.49 500.65Q 306.03 500.63 305.68 501.73"
      stroke="rgba(160,128,70,1)"
      vector-effect="non-scaling-stroke"
    />
    <path
      d="M 352.51 505.03C 350.13 518.59 336.78 523.37 324.1 522.2C 317.18 521.57 312.56 521 306.95 518.31Q 304.59 517.18 304.74 514.51Q 305.1 508.07 305.68 501.73"
      stroke="rgba(156,125,59,1)"
      vector-effect="non-scaling-stroke"
    />
    <path
      d="M 465.61 489.97Q 463.32 495.96 465.33 503.77C 468.56 516.37 476.99 524.6 489.58 525.61C 495.5 526.09 503.1 526.1 508.74 523.43C 514.83 520.55 520.14 516.22 520.91 509.08"
      stroke="rgba(127,123,75,1)"
      vector-effect="non-scaling-stroke"
    />
    <path
      d="M 520.91 509.08Q 521.65 507.07 520.12 506.65Q 519.08 506.37 518.36 506.93C 512.63 511.42 505.62 513.74 498.33 512.87C 495.24 512.5 491.02 510.74 489.28 508.76Q 486.92 506.06 483.98 499.2A 2.83 2.79 -57.79 0 1 483.77 498.24L 483.44 490.32A 1.11 1.11 88.76 0 1 484.55 489.16C 487.92 489.17 492.3 489.71 496.17 489.65Q 513.61 489.38 517 489.46Q 519.38 489.52 520.48 488.72A 1.25 1.23 77.48 0 0 520.97 487.94C 522.13 481.16 520.01 470.89 515.1 466.15C 506.73 458.07 493.54 456.59 483.06 461.06C 471.78 465.89 465.36 478.07 465.61 489.97"
      stroke="rgba(160,128,70,1)"
      vector-effect="non-scaling-stroke"
    />
    <path
      d="M 520.91 509.08C 513.65 520.22 501.6 524.05 488.84 521.58C 473.88 518.68 464.28 504.99 465.61 489.97"
      stroke="rgba(156,125,59,1)"
      vector-effect="non-scaling-stroke"
    />
    <path
      d="M 985.12 488.74Q 975.97 489.73 970.87 496.86"
      stroke="rgba(127,123,75,1)"
      vector-effect="non-scaling-stroke"
    />
    <path
      d="M 970.87 496.86Q 964.56 507.62 972.01 516.88"
      stroke="rgba(187,182,146,1)"
      vector-effect="non-scaling-stroke"
    />
    <path
      d="M 972.01 516.88Q 972.95 519.73 975.09 521.92A 0.62 0.62 68.67 0 0 975.5 522.1Q 975.74 522.12 975.78 522.13A 0.11 0.1 47.16 0 1 975.79 522.34C 973.72 522.26 972.25 519.7 970.43 517.46A 0.25 0.25 11.52 0 0 970.02 517.73C 971.3 520.12 972.86 521.9 975.34 523.04Q 981.97 526.09 989.3 525.48C 993.44 525.13 1000.48 523.08 1005.1 523.63C 1011.9 524.42 1027.42 528.32 1028.18 517.49"
      stroke="rgba(127,123,75,1)"
      vector-effect="non-scaling-stroke"
    />
    <path
      d="M 1028.18 517.49L 1029.24 515.56A 0.73 0.73 -72.95 0 0 1028.67 514.48Q 1026.18 514.27 1024.19 514.04C 1020.13 513.58 1020.62 510.7 1020.51 507Q 1020.5 506.68 1020.34 484.25Q 1020.29 477.49 1019.57 474.11Q 1017.08 462.52 1005.61 459.65Q 995.63 457.14 985.52 459.78C 979.8 461.27 973.11 465.33 971.53 471.25C 969.9 477.42 973.07 482.59 980.03 481.6Q 982.95 481.18 984.99 478.27C 987.47 474.72 985.99 467.81 989.37 464.74Q 992.53 461.87 997.63 463.36Q 1001.97 464.63 1002.56 469.83Q 1003.4 477.25 1003.05 484.76A 1.07 1.05 86.67 0 1 1002.17 485.76L 985.12 488.74"
      stroke="rgba(187,182,146,1)"
      vector-effect="non-scaling-stroke"
    />
    <path
      d="M 1028.18 517.49Q 1024.18 521.43 1017.48 522.08Q 1007.27 523.07 1003.89 513.87A 0.45 0.44 53.69 0 0 1003.12 513.75C 995.58 523.48 981.2 525.36 972.01 516.88"
      stroke="rgba(182,179,135,1)"
      vector-effect="non-scaling-stroke"
    />
    <path
      d="M 970.87 496.86Q 976.93 491.3 985.12 488.74"
      stroke="rgba(182,179,135,1)"
      vector-effect="non-scaling-stroke"
    />
    <path
      d="M 242.79 478.53Q 239.55 484.2 239.18 489.25C 238.72 495.57 240.35 503.8 243.91 509.65C 248.13 516.61 251.01 522.23 259.19 524.05Q 267.41 525.88 277.11 525.31C 284.42 524.88 288.54 522 292.96 516.39Q 294.79 514.07 294.37 512.76"
      stroke="rgba(127,123,75,1)"
      vector-effect="non-scaling-stroke"
    />
    <path
      d="M 294.37 512.76C 295.08 510.91 296.91 508.86 296.42 506.82A 1.08 1.07 -25.13 0 0 294.73 506.21Q 290.63 509.25 285.91 511.43C 278.25 514.97 266.4 513.58 262.28 505.17Q 258.96 498.37 259.18 490.59A 1.23 1.23 -89.04 0 1 260.41 489.4L 294.95 489.4A 1.85 1.85 -86.28 0 0 296.78 487.79Q 298.1 477.64 293.39 469.92C 289.81 464.06 284.87 461.2 278.25 459.69Q 269.25 457.63 260.52 460.5C 251.89 463.34 246.37 470.4 242.79 478.53"
      stroke="rgba(160,128,70,1)"
      vector-effect="non-scaling-stroke"
    />
    <path
      d="M 294.37 512.76Q 288.25 519.78 278.75 521.47C 265.27 523.87 249.64 519.51 243.95 506.05Q 238.26 492.62 242.79 478.53"
      stroke="rgba(156,125,59,1)"
      vector-effect="non-scaling-stroke"
    />
    <path
      d="M 851.06 514.19Q 853.25 518.63 858.51 520.73Q 862.44 522.3 862.82 522.35Q 862.89 522.36 862.93 522.41Q 863.02 522.51 863.07 522.62A 0.02 0.02 82.44 0 1 863.05 522.65Q 855.92 520.85 849.95 515.91A 0.25 0.25 3.98 0 0 849.57 516.24Q 852.62 521.13 858.44 523.02C 869.04 526.45 879.34 527.03 889.4 521.41Q 896.27 517.57 898.05 509.96"
      stroke="rgba(127,123,75,1)"
      vector-effect="non-scaling-stroke"
    />
    <path
      d="M 898.05 509.96Q 898.21 509.04 898.72 508.24A 1.58 1.57 29.45 0 0 898.09 506Q 896.32 505.1 894.99 506.52C 890.85 510.9 885.64 512.71 879.46 512.89C 871.68 513.11 865.49 509.57 862.88 502.14C 861.73 498.89 860.81 493.8 860.66 490.02A 0.53 0.53 88.46 0 1 861.19 489.46L 897.05 489.46A 1.65 1.63 2.68 0 0 898.69 487.98C 899.6 478.32 897.02 469.74 889.46 463.96C 880.68 457.26 867.74 457.03 858.3 462.46C 845.22 469.99 839.84 484.74 843.07 499.44Q 844.93 507.91 851.06 514.19"
      stroke="rgba(187,182,146,1)"
      vector-effect="non-scaling-stroke"
    />
    <path
      d="M 898.05 509.96Q 892.73 515.85 890.61 517.35C 884.33 521.8 874.65 522.92 867.15 521.95Q 857.97 520.77 851.06 514.19"
      stroke="rgba(182,179,135,1)"
      vector-effect="non-scaling-stroke"
    />
    <path
      d="M 532.92 509.87L 531.62 507.88A 0.06 0.05 27.19 0 0 531.52 507.91Q 531.95 521.17 544.82 524.39Q 552.24 526.24 558.56 523.76Q 567.28 520.34 567.63 520.35A 1.57 1.52 -22.49 0 1 568.54 520.71C 574.2 525.55 583.72 524.32 590.74 522.95A 0.67 0.67 -48.96 0 0 590.65 521.62L 585.2 521.34"
      stroke="rgba(127,123,75,1)"
      vector-effect="non-scaling-stroke"
    />
    <path
      d="M 585.2 521.34L 590.73 521.18A 1.07 1.07 -23.43 0 0 591.45 519.36L 588.3 516.21A 5.47 5.43 22.66 0 1 586.7 512.36L 586.7 461.17A 1.38 1.37 86.34 0 0 585.15 459.8Q 575.59 461.01 567.69 462.48Q 565.78 462.83 564.35 463.88A 0.68 0.68 -48.11 0 0 564.41 465.02C 566.86 466.42 569.43 467.26 569.37 470.17Q 569.35 471.26 569.35 471.41Q 569.91 490.28 569.26 509.21A 2.6 2.59 -13.36 0 1 567.91 511.4Q 561.2 515.04 553.62 513.1A 2.94 2.87 69.82 0 1 552.61 512.62Q 550.03 510.72 549.91 508.15Q 549.63 502.37 549.23 496Q 549.01 492.43 549.53 482.74Q 550.1 472.15 549.65 461.39A 1.73 1.73 -4.62 0 0 547.72 459.75Q 534.86 461.28 528.82 462.8Q 527.8 463.05 527.3 463.48A 1.22 1.21 -54.3 0 0 527.63 465.54C 530.94 466.84 531.86 468.11 531.94 471.78Q 532.2 484.63 531.92 500.26Q 531.83 505.34 532.92 509.87"
      stroke="rgba(160,128,70,1)"
      vector-effect="non-scaling-stroke"
    />
    <path
      d="M 585.2 521.34L 572.49 521.6A 2.14 2.14 88.22 0 1 570.31 519.55L 570.13 515.12A 0.61 0.61 -27.66 0 0 569.04 514.78C 564.39 520.94 554.91 522.56 547.48 521.99Q 536.23 521.13 532.92 509.87"
      stroke="rgba(156,125,59,1)"
      vector-effect="non-scaling-stroke"
    />
    <path
      d="M 597.56 521.22Q 605.24 524.37 615.09 522.98A 0.72 0.72 45.03 0 0 615.09 521.55L 613.95 521.39"
      stroke="rgba(127,123,75,1)"
      vector-effect="non-scaling-stroke"
    />
    <path
      d="M 613.95 521.39Q 615.32 521.4 615.77 520.97A 1.39 1.39 -46.97 0 0 615.7 518.91C 613.89 517.39 610.82 516.46 612.39 513.39"
      stroke="rgba(160,128,70,1)"
      vector-effect="non-scaling-stroke"
    />
    <path
      d="M 612.39 513.39Q 612.05 514.45 612.19 515.06A 0.28 0.28 -32.48 0 0 612.69 515.17L 622.98 501.55A 0.58 0.58 42.17 0 1 623.88 501.51Q 629.61 507.86 633.22 515.51A 0.39 0.39 52.61 0 0 633.87 515.6Q 634.19 515.22 634.28 514.02"
      stroke="rgba(127,123,75,1)"
      vector-effect="non-scaling-stroke"
    />
    <path
      d="M 634.28 514.02Q 634.41 516.27 631.2 519.07A 1.21 1.18 -20.29 0 0 630.8 519.91Q 630.77 520.79 631.38 521.1"
      stroke="rgba(160,128,70,1)"
      vector-effect="non-scaling-stroke"
    />
    <path
      d="M 631.38 521.1Q 630.63 522.21 631.03 522.57Q 631.48 522.97 632.09 523Q 647.04 523.62 660.58 523.03Q 663.59 522.9 663.36 521.04"
      stroke="rgba(127,123,75,1)"
      vector-effect="non-scaling-stroke"
    />
    <path
      d="M 663.36 521.04Q 663.61 519.32 661.5 518.01Q 655.94 514.56 653.23 510.52Q 645.36 498.77 637.11 487.19A 1.43 1.43 46.34 0 1 637.15 485.48Q 642.78 478.25 648.34 470.93C 651.67 466.54 654.25 464.6 659.26 462.93A 1.23 1.23 45.75 0 0 659.29 460.6Q 657.9 460.1 656 460.11Q 645.48 460.14 641.04 460.5A 1.26 1.26 -26.65 0 0 640.31 462.7Q 640.86 463.18 643.2 463.98A 1.6 1.59 82.11 0 1 643.96 464.56Q 645.32 466.55 644.07 468.4Q 639.29 475.5 638.61 477.12A 3.3 3.17 -14.07 0 1 638.07 477.98Q 636.32 480.02 635.48 482.19A 0.76 0.76 38.94 0 1 634.14 482.33Q 629.61 475.39 625.86 470.39Q 624.58 468.7 624.23 466.48A 2.08 2.07 68.93 0 1 625.13 464.44L 628.26 462.37A 0.91 0.9 -54.45 0 0 627.99 460.74Q 627.29 460.55 625.5 460.48Q 609.87 459.84 596.71 460.38A 1.13 1.13 74.04 0 0 595.78 462.06Q 595.9 462.28 596.12 462.38Q 600.07 464.22 602.93 466.79A 13.52 13.47 -85.95 0 1 605.1 469.3L 620.73 492.95A 0.59 0.58 -38.08 0 1 620.63 493.7C 617.15 496.88 614.92 501.15 612.04 505.25Q 606.34 513.39 597.56 518.61Q 596.57 519.2 596.67 519.84Q 596.77 520.46 597.56 521.22"
      stroke="rgba(160,128,70,1)"
      vector-effect="non-scaling-stroke"
    />
    <path
      d="M 663.36 521.04L 631.38 521.1"
      stroke="rgba(156,125,59,1)"
      vector-effect="non-scaling-stroke"
    />
    <path
      d="M 634.28 514.02L 624.03 496.76A 0.67 0.67 45.96 0 0 622.88 496.74L 612.39 513.39"
      stroke="rgba(156,125,59,1)"
      vector-effect="non-scaling-stroke"
    />
    <path
      d="M 613.95 521.39L 597.56 521.22"
      stroke="rgba(156,125,59,1)"
      vector-effect="non-scaling-stroke"
    />
    <path
      d="M 1040.95 516.61Q 1042.29 521.16 1048.09 522.91Q 1056.44 525.43 1063.26 522.49"
      stroke="rgba(127,123,75,1)"
      vector-effect="non-scaling-stroke"
    />
    <path
      d="M 1063.26 522.49Q 1063.41 522.45 1063.59 522.36Q 1063.6 522.35 1063.59 522.36Q 1063.41 522.45 1063.26 522.49"
      stroke="rgba(127,123,75,1)"
      vector-effect="non-scaling-stroke"
    />
    <path
      d="M 1063.26 522.49Q 1058.37 523.84 1055.18 522.37"
      stroke="rgba(127,123,75,1)"
      vector-effect="non-scaling-stroke"
    />
    <path
      d="M 1055.18 522.37Q 1066 521.82 1074.19 514.59A 0.57 0.57 68.02 0 1 1075.13 514.99L 1075.32 519.65A 1.97 1.97 74.42 0 0 1077.37 521.54L 1096.78 520.74A 1.36 1.36 -25.87 0 0 1097.61 518.35C 1096.03 516.99 1092.44 516.26 1092.38 513.52Q 1092.07 500.47 1092.2 473.5Q 1092.24 465.9 1091.89 460.94A 0.95 0.94 -78.76 0 0 1091.38 460.17Q 1090.6 459.78 1088.43 460.13Q 1082.62 461.06 1069.99 462.99A 1.03 1.03 57.43 0 0 1069.58 464.86L 1072.97 467.1A 3.66 3.64 -73.38 0 1 1074.61 470.15L 1074.61 509.86A 1.23 1.23 -19.42 0 1 1074.15 510.82Q 1070.87 513.41 1065.22 514.09Q 1059.09 514.84 1056.11 511.25"
      stroke="rgba(187,182,146,1)"
      vector-effect="non-scaling-stroke"
    />
    <path
      d="M 1056.11 511.25L 1054.84 494.53"
      stroke="rgba(127,123,75,1)"
      vector-effect="non-scaling-stroke"
    />
    <path
      d="M 1054.84 494.53Q 1054.05 478.31 1054.67 461.95A 1.84 1.83 4.77 0 0 1053.06 460.06Q 1050.9 459.79 1049.74 459.97Q 1041.94 461.21 1034.25 462.22Q 1032.9 462.39 1031.09 462.98A 0.9 0.89 -41.31 0 0 1030.98 464.64C 1033.77 465.96 1036.89 466.91 1036.88 471.25Q 1036.85 484.34 1036.75 495.5C 1036.67 504.13 1036.54 509.91 1040.95 516.61"
      stroke="rgba(187,182,146,1)"
      vector-effect="non-scaling-stroke"
    />
    <path
      d="M 1054.84 494.53Q 1053.83 503.45 1056.11 511.25"
      stroke="rgba(182,179,135,1)"
      vector-effect="non-scaling-stroke"
    />
    <path
      d="M 1055.18 522.37Q 1046.38 522.31 1040.95 516.61"
      stroke="rgba(182,179,135,1)"
      vector-effect="non-scaling-stroke"
    />
    <path
      d="M 1104.95 520.73Q 1109.18 521.97 1113.61 521.88A 0.01 0 48.56 0 1 1113.61 521.89Q 1107.01 521.64 1103.84 522.1A 0.04 0.03 -35.78 0 0 1103.82 522.16Q 1103.86 522.17 1103.88 522.2A 0.38 0.13 -2.65 0 0 1104.15 522.28Q 1112.61 522.82 1120.61 521.59A 0.22 0.22 43.83 0 0 1120.6 521.15L 1116.95 520.75"
      stroke="rgba(127,123,75,1)"
      vector-effect="non-scaling-stroke"
    />
    <path
      d="M 1116.95 520.75L 1121.6 520.58A 0.34 0.32 -62.62 0 0 1121.8 520.51Q 1122.12 520.29 1122.13 520.28A 1.07 1.07 -57.79 0 0 1121.78 518.73L 1118.28 516.74A 2.62 2.62 31.61 0 1 1117.39 513.02L 1128.38 496.4A 0.34 0.33 -45.88 0 1 1128.93 496.39Q 1134.19 503.53 1139.77 513Q 1141.04 515.15 1139.41 516.83A 1.81 1.72 -77.98 0 1 1138.81 517.24Q 1135.27 518.74 1136.3 520.58"
      stroke="rgba(187,182,146,1)"
      vector-effect="non-scaling-stroke"
    />
    <path
      d="M 1136.3 520.58Q 1135.67 521.07 1137.38 522.05A 2.62 2.51 60.25 0 0 1138.53 522.39Q 1155.01 523.26 1165.29 522.59Q 1166.19 522.53 1166.76 521.85A 0.54 0.54 -66.75 0 0 1166.41 520.97L 1164.27 520.74"
      stroke="rgba(127,123,75,1)"
      vector-effect="non-scaling-stroke"
    />
    <path
      d="M 1164.27 520.74L 1167.98 520.62A 1.04 1.04 65.71 0 0 1168.66 518.82Q 1167.67 517.87 1166.06 517.24C 1163.77 516.34 1161.92 514.47 1160.83 512.91Q 1151.82 500.07 1143.23 487.27A 1.27 1.27 -43.86 0 1 1143.26 485.81Q 1152.77 472.87 1155.57 469.29Q 1159.14 464.71 1165.15 462.64A 1.31 1.25 -26.91 0 0 1165.83 460.71Q 1165.44 460.17 1164.26 460.17C 1154.96 460.17 1148.9 459.79 1146.19 460.57A 0.94 0.94 -36.2 0 0 1145.93 462.25L 1149.69 464.73A 1.93 1.92 33.4 0 1 1150.24 467.39L 1140.25 482.49A 0.31 0.31 -45.94 0 1 1139.74 482.5Q 1134.81 475.38 1130.54 468.99Q 1129.02 466.72 1130.16 464.7A 1.63 1.6 -1.17 0 1 1130.74 464.11Q 1131.95 463.4 1134.12 462.45A 1.05 1.05 -33 0 0 1134.48 460.78Q 1133.86 460.11 1132.99 460.13Q 1118.27 460.47 1104.73 460.1Q 1103.84 460.07 1102.77 460.38A 1.26 1.26 -44.05 0 0 1102.73 462.79Q 1107.49 464.34 1110.21 468.34Q 1117.12 478.52 1125.59 492.07A 1.11 1.09 46.73 0 1 1125.56 493.3Q 1119.79 501.36 1112.46 511.23C 1109.7 514.95 1106.96 516.82 1102.88 518.31A 1.17 1.17 -52.36 0 0 1103.17 520.57L 1104.95 520.73"
      stroke="rgba(187,182,146,1)"
      vector-effect="non-scaling-stroke"
    />
    <path
      d="M 1164.27 520.74L 1136.3 520.58"
      stroke="rgba(182,179,135,1)"
      vector-effect="non-scaling-stroke"
    />
    <path
      d="M 1116.95 520.75L 1104.95 520.73"
      stroke="rgba(182,179,135,1)"
      vector-effect="non-scaling-stroke"
    />
    <path
      d="M 941.5 501.26A 0.43 0.43 -45.63 0 1 940.7 501.27Q 934.25 484.48 928.62 469.16C 927.33 465.63 930.03 464.32 932.56 462.56A 1.21 1.21 -58.87 0 0 932.02 460.37Q 929.63 460.08 927.5 460.17Q 922.95 460.37 903.76 460.31Q 902.56 460.3 902.04 460.62A 1.23 1.23 -48.45 0 0 902.17 462.79Q 907.54 465.21 909.81 470.71Q 916.65 487.25 929.97 520.12A 1.7 1.69 -11.08 0 0 931.54 521.17L 937.53 521.17A 2.46 2.45 8.47 0 0 939.88 519.44Q 941.83 513.07 942.39 511.64Q 949.36 493.86 958.68 468.25C 959.97 464.69 963.9 463.71 967.23 462.62A 1.02 1.02 51.2 0 0 967.43 460.77L 966.97 460.5A 1.16 1.12 60.91 0 0 966.41 460.33Q 957.47 460.03 948.65 460.25A 1.1 1.02 -5.79 0 0 947.58 461.47Q 947.65 461.84 948.15 462.3A 0.28 0.25 75.13 0 0 948.24 462.36L 952.16 464.01A 2.9 2.9 -68.58 0 1 953.76 467.68L 941.5 501.26"
      stroke="rgba(187,182,146,1)"
      vector-effect="non-scaling-stroke"
    />
    <path
      d="M 931.82 523.26Q 937.57 523.76 940.08 522.72A 1.76 1.76 87.06 0 0 941.08 521.61L 944.56 510.19A 0.02 0.01 90 0 0 944.55 510.17L 944 510A 0.27 0.27 15.53 0 0 943.66 510.19C 942.47 514.84 941.66 518.85 938.91 522.3A 1.09 1.08 21.6 0 1 937.97 522.7Q 933.73 522.32 931.79 522.87A 0.2 0.2 -49.72 0 0 931.82 523.26"
      stroke="rgba(127,123,75,1)"
      vector-effect="non-scaling-stroke"
    />
    <path
      d="M 831.45 521.9A 0.32 0.32 0 0 0 831.13 521.59L 811.87 521.75A 0.32 0.32 0 0 0 811.55 522.08L 811.55 522.12A 0.32 0.32 0 0 0 811.87 522.43L 831.13 522.27A 0.32 0.32 0 0 0 831.45 521.94L 831.45 521.9"
      stroke="rgba(127,123,75,1)"
      vector-effect="non-scaling-stroke"
    />
    <path
      d="M 835.33 522.12Q 834.54 521.71 832.78 521.64Q 832.47 521.63 832.39 521.99A 0.36 0.35 5.97 0 1 832.04 522.27L 810.8 522.43A 0.23 0.22 11.77 0 0 810.59 522.56L 810.59 522.57A 0.25 0.25 8.3 0 0 810.8 522.85C 818.46 524.19 827.84 525.18 835.29 522.64A 0.28 0.28 49.54 0 0 835.33 522.12"
      stroke="rgba(127,123,75,1)"
      vector-effect="non-scaling-stroke"
    />
    <path
      d="M 775.74 114.96A 29.27 29.27 0 0 0 746.47 85.69A 29.27 29.27 0 0 0 717.2 114.96A 29.27 29.27 0 0 0 746.47 144.23A 29.27 29.27 0 0 0 775.74 114.96"
      stroke="rgba(230,220,183,1)"
      vector-effect="non-scaling-stroke"
    />
    <path
      d="M 497.23 200.25C 492.46 190.57 495.8 178.81 507.01 175.82C 514.78 173.74 518.82 176.71 524.94 180.65A 3.42 3.4 49.48 0 0 528.15 180.91C 535.43 177.72 544.58 176.03 551.05 174.61Q 555.5 173.63 564.56 172.43Q 585.9 169.6 613.53 169.85Q 644.52 170.14 664.19 172.27Q 674.67 173.41 681.19 174.95C 691.41 177.35 701.65 179.86 710.78 184.7C 717.32 188.17 720.03 193.78 724.31 199.37Q 737.23 216.2 752.33 237.18Q 754.85 240.67 757.93 240.65C 787.58 240.43 817.19 240.71 846.4 247.56Q 858.93 250.5 868.34 255.18A 0.82 0.82 15.7 0 0 869.52 254.52Q 871.23 233.53 868.38 213.3A 0.75 0.75 -5.34 0 0 867.59 212.65C 861.3 212.99 853.87 212.3 848.26 211.93Q 821.71 210.19 798.41 203.8Q 771.94 196.55 749.89 187.08Q 732.08 179.44 713.35 170.41C 692.22 160.24 674.25 152 655.13 144.88C 628.6 134.99 601.05 130.15 572.82 133.08Q 542.38 136.23 513.76 148.84Q 500.41 154.73 489.57 161.2A 1.73 1.68 89.16 0 0 488.91 161.9Q 484.57 170.37 482.09 179.55Q 478.99 191.03 478.28 193.39C 474.86 204.63 473.56 214.51 472.96 226.19A 0.42 0.42 -24.51 0 0 473.71 226.47C 476.81 222.51 479.9 219.68 483.1 215.84Q 489.16 208.56 497.09 201.03A 0.67 0.66 -35.02 0 0 497.23 200.25"
      stroke="rgba(230,220,183,1)"
      vector-effect="non-scaling-stroke"
    />
    <path
      d="M 866.38 206.08A 0.51 0.5 87.48 0 0 866.89 205.52Q 866.62 202.9 866.11 200.57Q 860.79 175.97 849.22 153.16A 1.82 1.8 78.74 0 0 847.75 152.17Q 826.95 150.53 807.2 155.23Q 793.87 158.4 786.32 161.32Q 762.51 170.53 744.94 176.88A 0.4 0.4 -43.8 0 0 744.92 177.63Q 755.12 181.7 759.93 183.76C 767.85 187.15 778 190.39 785.75 192.95C 811.52 201.45 838.88 205.68 866.38 206.08"
      stroke="rgba(230,220,183,1)"
      vector-effect="non-scaling-stroke"
    />
    <path
      d="M 429.27 325.24A 0.36 0.35 -26.12 0 0 429.92 325.46Q 431.23 323.48 435.92 315.66Q 439.77 309.24 452.04 295.29C 460.35 285.85 472.64 278.24 484.65 273.62Q 493.1 270.37 500.52 269.92Q 526.83 268.34 544.48 288.03Q 549.08 293.17 551.85 300.13Q 556.79 312.51 560.24 325.46C 561.33 329.55 561.86 334.52 563.36 338.45A 1.32 1.14 47.92 0 0 565.64 338.73Q 565.93 337.95 565.14 336.44A 0.58 0.58 -10.91 0 1 565.71 335.6Q 566.7 335.7 578.38 335.46Q 582.88 335.37 591.11 335.71C 617.71 336.81 629.72 337.34 654.04 337.9Q 674.23 338.36 682.75 338.74Q 704.99 339.72 715.29 339.76C 728.73 339.8 743.84 340.74 758.18 340.57A 1.16 1.16 -0.25 0 0 759.32 339.42Q 759.42 319.86 759.3 287C 759.25 274.56 757.9 263.8 751.41 253.36Q 749.94 251 744.79 244.33Q 740.87 239.27 738.27 235.53C 734.96 230.79 731.18 226.64 727.77 221.22Q 725.21 217.16 722.23 213.88C 711.19 201.77 699.55 192.68 683.62 189.18Q 667.74 185.7 650.79 185.16C 628.32 184.45 603.87 184.74 583.12 194.7Q 575.82 198.21 572.7 200.4Q 562.22 207.77 552.96 219.61C 551.32 221.71 549.54 224.7 548.39 227.44Q 542.72 240.99 543.24 255.69A 1.22 1.22 88.15 0 1 542.05 256.96Q 516.87 257.71 493.33 265.1Q 480.29 269.19 469.42 276.68Q 469.29 276.77 460.36 283.59Q 452.64 289.49 446.29 297.52Q 437.24 308.98 429.91 322.63Q 429.4 323.59 429.27 325.24"
      stroke="rgba(178,128,78,1)"
      vector-effect="non-scaling-stroke"
    />
    <path
      d="M 492.04 238.51C 489.49 245.89 494.36 250.21 501.52 250.2Q 503.9 250.2 527.49 249.72Q 536.1 249.54 537.81 241.6Q 540.54 228.91 545.71 220.47Q 549.18 214.79 551.76 210.78C 555.13 205.56 553.24 199.87 547.73 197.42C 545.23 196.31 540.97 196.81 538.46 197.68Q 512.04 206.76 496.52 229.78Q 493.51 234.24 492.04 238.51"
      stroke="rgba(212,170,134,1)"
      vector-effect="non-scaling-stroke"
    />
    <path
      d="M 763.22 345.95Q 763.72 345 764.01 344.76Q 776.43 334.31 784.81 320.58Q 792.62 307.8 793.34 306.6Q 795.92 302.32 804.86 292.86Q 811.93 285.37 824.09 281.36C 833.83 278.15 840.95 276.4 849.88 277.36Q 856.97 278.13 865.5 279.14A 0.38 0.38 70.72 0 0 865.81 278.49L 864.97 277.64A 1 0.99 78.99 0 0 864.75 277.49Q 846.46 269.17 832.5 265.97Q 804.12 259.47 773.34 257.15A 0.56 0.56 -17.02 0 0 772.86 258.05Q 775.6 261.55 779.74 266.07Q 783.98 270.69 791.09 271.15Q 797.78 271.57 799.77 271.47Q 819.96 270.38 845.28 273.44A 0.53 0.51 70.13 0 1 845.59 273.59L 845.94 273.94A 0.32 0.31 67.58 0 1 845.72 274.48Q 828.94 274.3 815.1 281.62Q 807.15 285.83 798.06 294.83Q 797.29 295.59 794.65 299.34A 1.02 1 -68.02 0 1 793.68 299.76Q 793.16 299.69 792.99 298.91Q 792.83 298.17 792.27 297.38Q 783.35 284.91 771.65 267.85C 767.44 261.71 763.38 256.77 758.81 251.61A 0.49 0.49 -78.61 0 0 758 252.15C 763.11 262.85 770.99 273.13 776.77 281.45Q 785.29 293.71 790.69 302.46A 1.33 1.31 45.33 0 1 790.69 303.85Q 785.28 312.65 782.24 318.1C 777.4 326.75 770.59 333.96 764.47 340.74A 4.67 4.58 71.77 0 0 763.35 343.01Q 763.15 344.08 762.33 345.39A 0.4 0.39 24.58 0 0 762.55 345.98L 762.9 346.09A 0.29 0.27 -67.33 0 0 763.22 345.95"
      stroke="rgba(178,128,78,1)"
      vector-effect="non-scaling-stroke"
    />
    <path
      d="M 643.2 188.97L 643.2 332.76A 1.39 1.39 0.85 0 0 644.55 334.15L 755.67 337.29A 0.47 0.46 -0.56 0 0 756.15 336.81Q 755.79 323.34 755.98 315.26Q 756.33 300.56 755.96 285.76Q 755.66 273.81 753.99 267.95Q 751.62 259.65 746.74 252.93Q 738.3 241.31 729.69 229.37Q 725.93 224.14 721.32 218.54C 712.48 207.8 704.6 199.77 691.27 195.3Q 680.04 191.54 676.41 190.69C 665.17 188.05 657.62 188.41 643.79 188.39A 0.59 0.58 0 0 0 643.2 188.97"
      stroke="rgba(178,128,78,1)"
      vector-effect="non-scaling-stroke"
    />
    <path
      d="M 568.06 331.49Q 575.23 332.57 584.76 332.69Q 616.01 333.08 638.97 334.04A 0.67 0.67 1.23 0 0 639.67 333.37L 639.67 189.52A 0.94 0.94 79.36 0 0 638.73 188.58Q 627.43 188.5 618.06 188.89C 613.91 189.06 607.97 189.71 604.96 190.67Q 598.9 192.58 596 193.39C 589.07 195.33 582.97 198.81 576.93 201.92A 3.96 3.87 10.66 0 0 576.12 202.46Q 573.95 204.28 571.23 205.44A 4.36 3.83 10.78 0 0 570.4 205.93Q 562.23 212.08 557.37 219.38C 554.71 223.38 553.01 227.6 550.49 231.93A 3.69 2.72 -28.22 0 0 550.2 232.54L 548.13 238.09A 2.38 2.24 61.75 0 0 547.99 238.61C 546.63 248.54 546.15 258.98 548.69 268.82Q 551.36 279.14 554.67 288.85Q 558.34 299.63 560.91 308.8Q 564.54 321.75 566.55 330.11A 1.83 1.83 87.39 0 0 568.06 331.49"
      stroke="rgba(178,128,78,1)"
      vector-effect="non-scaling-stroke"
    />
    <path
      d="M 649.01 198.99Q 648.81 214.57 648.97 242.36C 649 249.11 653.11 249.8 659.21 249.87Q 690.21 250.24 722.92 249.68Q 728.61 249.58 729.6 244.33Q 730.4 240.12 727.74 236.02Q 721.32 226.12 717.6 221.41Q 704.2 204.49 682.88 197.66C 674.78 195.07 662.83 193.79 653.96 194.39Q 651.08 194.59 649.34 197.75A 2.66 2.64 -30.31 0 0 649.01 198.99"
      stroke="rgba(212,170,134,1)"
      vector-effect="non-scaling-stroke"
    />
    <path
      d="M 660.68 262.84A 1.89 1.89 0 0 0 658.78 260.95L 649.82 260.99A 1.89 1.89 0 0 0 647.94 262.88L 647.94 263.12A 1.89 1.89 0 0 0 649.84 265.01L 658.8 264.97A 1.89 1.89 0 0 0 660.68 263.08L 660.68 262.84"
      stroke="rgba(178,128,78,1)"
      vector-effect="non-scaling-stroke"
    />
    <path
      d="M 555.31 246.87Q 559.34 249.83 563.27 249.81Q 578.43 249.71 624.89 249.79C 630.82 249.8 634.81 249.05 634.83 242.52Q 634.9 222.07 634.89 208.27C 634.88 199.92 635.58 193.74 625.78 194.11Q 610.43 194.68 598.49 198.19Q 572.4 205.88 557.6 228.62C 555.03 232.58 551.79 241.88 554.57 246.09A 3.01 2.93 -89.25 0 0 555.31 246.87"
      stroke="rgba(212,170,134,1)"
      vector-effect="non-scaling-stroke"
    />
    <path
      d="M 563.9 262.92A 1.87 1.87 0 0 0 562.05 261.03L 552.87 260.95A 1.87 1.87 0 0 0 550.98 262.8L 550.98 263A 1.87 1.87 0 0 0 552.83 264.89L 562.01 264.97A 1.87 1.87 0 0 0 563.9 263.12L 563.9 262.92"
      stroke="rgba(178,128,78,1)"
      vector-effect="non-scaling-stroke"
    />
    <path
      d="M 869.71 348.34A 25.96 25.96 0 0 0 843.75 322.38A 25.96 25.96 0 0 0 817.79 348.34A 25.96 25.96 0 0 0 843.75 374.3A 25.96 25.96 0 0 0 869.71 348.34"
      stroke="rgba(182,179,135,1)"
      vector-effect="non-scaling-stroke"
    />
    <path
      d="M 834.25 336.52A 15.06 14.83 -128.2 0 0 831.91 357.53A 15.06 14.83 -128.2 0 0 852.87 360.19A 15.06 14.83 -128.2 0 0 855.21 339.19A 15.06 14.83 -128.2 0 0 834.25 336.52"
      stroke="rgba(182,179,135,1)"
      vector-effect="non-scaling-stroke"
    />
    <path
      d="M 408.42 479.14Q 408.38 497.37 408.88 515.72A 1.06 1.06 0.64 0 0 409.89 516.75C 421.81 517.28 432.77 515.02 436.91 502.21C 439.02 495.67 440.52 486.99 440.54 479.21C 440.56 471.44 439.1 462.75 437.01 456.2C 432.93 443.37 421.98 441.06 410.06 441.54A 1.06 1.06 -0.38 0 0 409.05 442.56Q 408.46 460.92 408.42 479.14"
      stroke="rgba(160,128,70,1)"
      vector-effect="non-scaling-stroke"
    />
    <path
      d="M 504.78 484.66Q 506.43 478.49 504.79 471.18Q 502.79 462.3 494.7 462.75C 490.15 463.01 486.48 465.84 485.3 470.09Q 483.25 477.43 483.87 485.39A 0.85 0.85 86.47 0 0 484.75 486.17L 503.88 485.38A 0.97 0.96 6.03 0 0 504.78 484.66"
      stroke="rgba(160,128,70,1)"
      vector-effect="non-scaling-stroke"
    />
    <path
      d="M 996.84 490.96Q 984.14 494.68 985.49 506.22C 986.03 510.83 988.16 513.58 992.97 513.43Q 996.03 513.34 997.93 512.33"
      stroke="rgba(182,179,135,1)"
      vector-effect="non-scaling-stroke"
    />
    <path
      d="M 997.93 512.33Q 1000.41 511.64 1002.58 509.69A 1.63 1.61 69.1 0 0 1003.11 508.49L 1003.11 489.63A 0.45 0.45 85.66 0 0 1002.59 489.18Q 999.11 489.75 996.84 490.96"
      stroke="rgba(187,182,146,1)"
      vector-effect="non-scaling-stroke"
    />
    <path
      d="M 997.93 512.33L 991.98 512.79A 3.75 3.74 55.74 0 1 990.04 512.42Q 986.94 510.91 986.4 507.68C 985.41 501.73 987.03 495.93 993.06 493.5Q 995.84 492.38 996.84 490.96"
      stroke="rgba(127,123,75,1)"
      vector-effect="non-scaling-stroke"
    />
    <path
      d="M 259.54 485.85Q 269.74 486.48 279.6 485.67A 1.09 1.08 1.64 0 0 280.59 484.74C 281.46 478.82 281.87 472.29 279.01 466.69"
      stroke="rgba(160,128,70,1)"
      vector-effect="non-scaling-stroke"
    />
    <path
      d="M 279.01 466.69C 275.88 461.88 268.95 461.39 264.63 464.79C 259.21 469.07 258.55 479.59 259.54 485.85"
      stroke="rgba(156,125,59,1)"
      vector-effect="non-scaling-stroke"
    />
    <path
      d="M 279.01 466.69Q 280.81 473.56 280.86 480.82A 0.21 0.21 37.84 0 1 280.45 480.87L 277.51 469.28A 3.01 3 -3.28 0 0 274.99 467.04L 268.47 466.18A 0.98 0.97 -64.16 0 0 267.65 466.47Q 263.21 471.14 262.58 474.32Q 261.43 480.11 259.54 485.85"
      stroke="rgba(127,123,75,1)"
      vector-effect="non-scaling-stroke"
    />
    <path
      d="M 860.72 485.47A 0.64 0.63 -1.71 0 0 861.4 486.1Q 870.37 485.54 880 486.13Q 882.34 486.27 882.38 484.2C 882.51 477.5 883.64 463.74 873.77 463.12Q 865.88 462.63 863.11 470.41Q 860.7 477.18 860.72 485.47"
      stroke="rgba(187,182,146,1)"
      vector-effect="non-scaling-stroke"
    />
  </g>
  <!-- Full-canvas background color. -->
  <path d="M 1343 0L 1343 569L 0 569L 0 0L 1343 0Z" fill="#837e55" />
  <!-- Main 2CV silhouette and body base fill. -->
  <path
    d="M 859.57 385.72Q 865.92 382.91 867.73 381.48Q 873.25 377.11 877.63 370.98C 888.62 355.61 885.88 333.31 873.01 320.09Q 868.3 315.24 861.65 311.95Q 844.65 303.55 828.23 310.87Q 817.47 315.67 811.25 323.71C 800.33 337.84 799.93 356.79 809.95 371.27Q 816.03 380.06 826.57 385.29C 822.22 385.34 817.25 384.92 813.81 384.85Q 670.12 381.99 526.02 384.95Q 532.26 381.48 535.92 378.17Q 549.5 365.88 549.08 347Q 549.03 344.63 548.48 343.14Q 548.27 342.44 548.47 341.85A 0.76 0.75 9 0 1 549.19 341.33Q 554.96 341.41 561.91 341.69C 563.48 341.75 565.44 341.3 567.25 341.34Q 596.29 341.96 635 343.56Q 660.5 344.62 762.07 346.96Q 762.48 349.83 763.58 351.33A 2.77 2.75 -55.61 0 1 764.02 353.71C 763.03 357.37 761.07 362.21 761.4 365.99A 3.01 2.99 4.71 0 0 763.64 368.62C 767.81 369.68 776.28 369.49 779.16 364.9Q 781.87 360.57 783.97 354.99Q 789.87 339.28 795.03 323.16C 803.1 309.23 816.52 294.13 833.13 290.57C 850.14 286.92 866.11 292.18 877.83 304.71C 883.26 310.5 887.71 321.77 890.58 327.69C 894.12 334.97 897.65 340.19 905.28 342.32A 1.11 1.1 8.42 0 1 906.09 343.41L 905.93 349.04A 1.36 1.36 -84.49 0 0 907.07 350.43C 912.54 351.33 918.1 348.6 922.77 346.04A 2.7 2.67 -14.94 0 0 924.16 343.66Q 923.89 327.29 923.83 318.01Q 923.83 316.57 922.69 315.73A 1.69 1.66 30.32 0 0 920.15 316.37C 917.03 323.4 913.94 329.89 909.06 335.49A 0.59 0.59 -25.37 0 1 908.02 335.12Q 907.89 330.76 908.13 325C 908.55 314.87 907.03 304.93 902.15 294.83A 0.99 0.98 -35.67 0 1 902.34 293.7C 906.36 289.76 905.32 278.2 903.76 273.55A 2.88 2.88 80.38 0 0 901 271.59Q 894.48 271.65 888.48 274.07Q 887.44 274.28 886.54 273.4C 879.86 267.05 869.84 261.63 862.12 258.65C 849.21 253.66 834.97 250.43 819.65 248.82Q 797.72 246.51 771.99 246.49Q 757.61 246.48 757.48 246.48C 753.78 246.45 751.1 244.82 749 242.01Q 727.41 213.18 713.92 194.41A 6.18 6.04 0.49 0 0 712.47 192.97C 704.87 187.57 696.76 185.08 687.01 182.28C 674.36 178.63 661.76 177.57 647.5 176.79C 616.82 175.13 588.77 175.28 560.32 178.84Q 541.17 181.23 524.16 189.14A 0.66 0.66 7.33 0 1 523.28 188.82C 521.01 183.96 515.56 179.55 510.01 180.79C 502.3 182.52 499.15 188.46 502.02 196.1A 3.12 3.09 8.32 0 0 503.08 197.51L 505.15 199.08A 1.6 1.59 42.57 0 1 505.26 201.54Q 494.43 211.27 486.93 219.91Q 483.04 224.38 474.26 236.16Q 469.69 242.29 462.91 253.36Q 447.23 278.97 435.38 301A 1.92 1.92 -75.11 0 1 433.64 302.01L 429.05 301.88A 2.27 2.26 -85.36 0 0 426.74 303.85C 426.44 306.14 425.43 317.27 427.65 319.29A 0.72 0.72 -32.72 0 1 427.38 320.51Q 426.45 320.8 421.87 321.48C 419.99 321.76 418.19 322.78 418.43 324.76Q 419.16 330.86 418 335.09A 2.02 2.02 11.6 0 0 419.68 337.63L 424.63 338.28A 2.17 2.17 6.33 0 0 427.08 336.32Q 427.26 334.33 426.91 332.9A 0.65 0.65 -1.14 0 1 427.67 332.11Q 448.33 336.3 468.98 337.78C 468.56 340.18 467.92 342.45 467.79 344.72Q 466.12 373.18 492.24 385.91Q 485.18 386.62 481.43 385.87Q 479.44 385.47 476.81 382.96Q 460.21 367.14 461.37 344.07A 0.9 0.9 -84.81 0 0 460.59 343.13L 433.02 339.48A 0.64 0.62 -75.6 0 0 432.36 339.88Q 430.91 343.53 426.94 343.87C 421.41 344.35 414.83 343.54 412.54 337.84A 3.29 3.15 -56.28 0 1 412.31 336.54Q 412.45 331.44 412.21 328.02C 411.72 320.87 412.69 317.87 419.65 315.61A 1.49 1.48 81.19 0 0 420.68 314.19C 420.67 309.63 420.15 303.54 422.55 299.3C 424.02 296.71 426.7 296.61 430.06 295.98A 3.22 3.19 -80.15 0 0 432.25 294.42Q 435.24 289.2 440.7 279.42Q 452.42 258.43 462.64 242.84A 5.33 5.22 -28.66 0 0 463.51 239.98C 463.95 194.84 479.16 150.44 506.99 114.81C 531.98 82.82 567.06 57.15 606.33 44.58Q 678.78 21.38 749.4 49.65C 757.77 53.01 768.6 58.26 776.78 63.16Q 834.11 97.54 861.75 159.01Q 864.76 165.71 869.97 181.98C 877.63 205.92 880.76 233.32 877.49 258.98A 0.73 0.73 -69.97 0 0 877.82 259.69L 888.8 266.96A 1.01 1.01 53.77 0 0 889.64 267.09Q 893.32 266.06 898.5 265.72C 902.58 265.45 905.55 266.09 908.04 269.55C 911.54 274.43 912.16 288.15 908.87 293.61A 1.09 1.08 48.92 0 0 908.81 294.61Q 912.65 303.56 913.21 313.22A 0.44 0.44 -28.03 0 0 914 313.46Q 918.11 308.08 924.17 310.33C 930.44 312.65 930.27 318.59 930.11 324.75Q 929.87 333.93 929.73 345.22C 929.68 349.79 925.08 351.72 920.77 353.75C 914.36 356.77 903.85 358.99 899.95 351.71A 0.95 0.94 77.57 0 0 899.17 351.21Q 897.76 351.12 893.06 352.79Q 891 353.52 890.4 354.55A 2.46 2.37 -27.59 0 0 890.11 355.42C 888.74 366.03 881.3 378.77 872.2 385.37A 3.88 3.83 -61.52 0 1 869.8 386.1L 859.57 385.72Z"
    fill="#f2edce"
  />
  <!-- Circular upper accent above the car body. -->
  <path
    d="M 775.74 114.96A 29.27 29.27 0 0 1 746.47 144.23A 29.27 29.27 0 0 1 717.2 114.96A 29.27 29.27 0 0 1 746.47 85.69A 29.27 29.27 0 0 1 775.74 114.96Z"
    fill="#dacb9f"
  />
  <path
    d="M 497.23 200.25A 0.67 0.66 -35.02 0 1 497.09 201.03Q 489.16 208.56 483.1 215.84C 479.9 219.68 476.81 222.51 473.71 226.47A 0.42 0.42 -24.51 0 1 472.96 226.19C 473.56 214.51 474.86 204.63 478.28 193.39Q 478.99 191.03 482.09 179.55Q 484.57 170.37 488.91 161.9A 1.73 1.68 89.16 0 1 489.57 161.2Q 500.41 154.73 513.76 148.84Q 542.38 136.23 572.82 133.08C 601.05 130.15 628.6 134.99 655.13 144.88C 674.25 152 692.22 160.24 713.35 170.41Q 732.08 179.44 749.89 187.08Q 771.94 196.55 798.41 203.8Q 821.71 210.19 848.26 211.93C 853.87 212.3 861.3 212.99 867.59 212.65A 0.75 0.75 -5.34 0 1 868.38 213.3Q 871.23 233.53 869.52 254.52A 0.82 0.82 15.7 0 1 868.34 255.18Q 858.93 250.5 846.4 247.56C 817.19 240.71 787.58 240.43 757.93 240.65Q 754.85 240.67 752.33 237.18Q 737.23 216.2 724.31 199.37C 720.03 193.78 717.32 188.17 710.78 184.7C 701.65 179.86 691.41 177.35 681.19 174.95Q 674.67 173.41 664.19 172.27Q 644.52 170.14 613.53 169.85Q 585.9 169.6 564.56 172.43Q 555.5 173.63 551.05 174.61C 544.58 176.03 535.43 177.72 528.15 180.91A 3.42 3.4 49.48 0 1 524.94 180.65C 518.82 176.71 514.78 173.74 507.01 175.82C 495.8 178.81 492.46 190.57 497.23 200.25Z"
    fill="#dacb9f"
  />
  <path
    d="M 866.38 206.08C 838.88 205.68 811.52 201.45 785.75 192.95C 778 190.39 767.85 187.15 759.93 183.76Q 755.12 181.7 744.92 177.63A 0.4 0.4 -43.8 0 1 744.94 176.88Q 762.51 170.53 786.32 161.32Q 793.87 158.4 807.2 155.23Q 826.95 150.53 847.75 152.17A 1.82 1.8 78.74 0 1 849.22 153.16Q 860.79 175.97 866.11 200.57Q 866.62 202.9 866.89 205.52A 0.51 0.5 87.48 0 1 866.38 206.08Z"
    fill="#dacb9f"
  />
  <!-- Warm midtone shading pass for hood, cabin, and side panels. -->
  <path
    d="M 886.54 273.4Q 883.37 274.91 881.36 277.1C 877.07 281.78 882.59 288.47 886.57 291.1C 889.47 293.02 890.93 294.02 894.17 293.82A 0.63 0.62 -37.69 0 0 894.33 292.6C 889.28 290.97 885.5 290.32 883.25 284.83Q 882.38 282.73 882.98 280.66C 884.02 277.05 886.2 276.25 888.48 274.07Q 894.48 271.65 901 271.59A 2.88 2.88 80.38 0 1 903.76 273.55C 905.32 278.2 906.36 289.76 902.34 293.7A 0.99 0.98 -35.67 0 0 902.15 294.83C 907.03 304.93 908.55 314.87 908.13 325Q 907.89 330.76 908.02 335.12A 0.59 0.59 -25.37 0 0 909.06 335.49C 913.94 329.89 917.03 323.4 920.15 316.37A 1.69 1.66 30.32 0 1 922.69 315.73Q 923.83 316.57 923.83 318.01Q 923.89 327.29 924.16 343.66A 2.7 2.67 -14.94 0 1 922.77 346.04C 918.1 348.6 912.54 351.33 907.07 350.43A 1.36 1.36 -84.49 0 1 905.93 349.04L 906.09 343.41A 1.11 1.1 8.42 0 0 905.28 342.32C 897.65 340.19 894.12 334.97 890.58 327.69C 887.71 321.77 883.26 310.5 877.83 304.71C 866.11 292.18 850.14 286.92 833.13 290.57C 816.52 294.13 803.1 309.23 795.03 323.16Q 791.77 326.27 790.39 329.81Q 789.52 332.03 787.55 333.38Q 781.91 337.23 776.14 341.87Q 770.55 346.36 762.07 346.96Q 660.5 344.62 635 343.56Q 596.29 341.96 567.25 341.34C 565.44 341.3 563.48 341.75 561.91 341.69Q 554.96 341.41 549.19 341.33A 0.76 0.75 9 0 0 548.47 341.85Q 548.27 342.44 548.48 343.14Q 541.24 340.99 533.39 341.48Q 527.5 340.55 521.56 341.33Q 517.4 340.6 515.24 340.54Q 510.98 340.41 495.5 340.42Q 490.22 338.59 483.76 339.28Q 476.42 337.82 468.98 337.78Q 448.33 336.3 427.67 332.11A 0.65 0.65 -1.14 0 0 426.91 332.9Q 427.26 334.33 427.08 336.32A 2.17 2.17 6.33 0 1 424.63 338.28L 419.68 337.63A 2.02 2.02 11.6 0 1 418 335.09Q 419.16 330.86 418.43 324.76C 418.19 322.78 419.99 321.76 421.87 321.48Q 426.45 320.8 427.38 320.51A 0.72 0.72 -32.72 0 0 427.65 319.29C 425.43 317.27 426.44 306.14 426.74 303.85A 2.27 2.26 -85.36 0 1 429.05 301.88L 433.64 302.01A 1.92 1.92 -75.11 0 0 435.38 301Q 447.23 278.97 462.91 253.36Q 469.69 242.29 474.26 236.16Q 483.04 224.38 486.93 219.91Q 494.43 211.27 505.26 201.54A 1.6 1.59 42.57 0 0 505.15 199.08L 503.08 197.51A 3.12 3.09 8.32 0 1 502.02 196.1C 499.15 188.46 502.3 182.52 510.01 180.79C 515.56 179.55 521.01 183.96 523.28 188.82A 0.66 0.66 -33.02 0 0 524.16 189.14Q 541.17 181.23 560.32 178.84C 588.77 175.28 616.82 175.13 647.5 176.79C 661.76 177.57 674.36 178.63 687.01 182.28C 696.76 185.08 704.87 187.57 712.47 192.97A 6.18 6.04 0.49 0 1 713.92 194.41Q 727.41 213.18 749 242.01C 751.1 244.82 753.78 246.45 757.48 246.48Q 757.61 246.48 771.99 246.49Q 797.72 246.51 819.65 248.82C 834.97 250.43 849.21 253.66 862.12 258.65C 869.84 261.63 879.86 267.05 886.54 273.4Z"
    fill="#b5663e"
  />
  <!-- Additional panel shading and volume definition for the car body. -->
  <path
    d="M 429.27 325.24Q 429.4 323.59 429.91 322.63Q 437.24 308.98 446.29 297.52Q 452.64 289.49 460.36 283.59Q 469.29 276.77 469.42 276.68Q 480.29 269.19 493.33 265.1Q 516.87 257.71 542.05 256.96A 1.22 1.22 88.15 0 0 543.24 255.69Q 542.72 240.99 548.39 227.44C 549.54 224.7 551.32 221.71 552.96 219.61Q 562.22 207.77 572.7 200.4Q 575.82 198.21 583.12 194.7C 603.87 184.74 628.32 184.45 650.79 185.16Q 667.74 185.7 683.62 189.18C 699.55 192.68 711.19 201.77 722.23 213.88Q 725.21 217.16 727.77 221.22C 731.18 226.64 734.96 230.79 738.27 235.53Q 740.87 239.27 744.79 244.33Q 749.94 251 751.41 253.36C 757.9 263.8 759.25 274.56 759.3 287Q 759.42 319.86 759.32 339.42A 1.16 1.16 -0.25 0 1 758.18 340.57C 743.84 340.74 728.73 339.8 715.29 339.76Q 704.99 339.72 682.75 338.74Q 674.23 338.36 654.04 337.9C 629.72 337.34 617.71 336.81 591.11 335.71Q 582.88 335.37 578.38 335.46Q 566.7 335.7 565.71 335.6A 0.58 0.58 -10.91 0 0 565.14 336.44Q 565.93 337.95 565.64 338.73A 1.32 1.14 47.92 0 1 563.36 338.45C 561.86 334.52 561.33 329.55 560.24 325.46Q 556.79 312.51 551.85 300.13Q 549.08 293.17 544.48 288.03Q 526.83 268.34 500.52 269.92Q 493.1 270.37 484.65 273.62C 472.64 278.24 460.35 285.85 452.04 295.29Q 439.77 309.24 435.92 315.66Q 431.23 323.48 429.92 325.46A 0.36 0.35 -26.12 0 1 429.27 325.24Z"
    fill="#af995d"
  />
  <path
    d="M 643.2 188.97A 0.59 0.58 -0 0 1 643.79 188.39C 657.62 188.41 665.17 188.05 676.41 190.69Q 680.04 191.54 691.27 195.3C 704.6 199.77 712.48 207.8 721.32 218.54Q 725.93 224.14 729.69 229.37Q 738.3 241.31 746.74 252.93Q 751.62 259.65 753.99 267.95Q 755.66 273.81 755.96 285.76Q 756.33 300.56 755.98 315.26Q 755.79 323.34 756.15 336.81A 0.47 0.46 -0.56 0 1 755.67 337.29L 644.55 334.15A 1.39 1.39 0.85 0 1 643.2 332.76L 643.2 188.97Z"
    fill="#b5663e"
  />
  <path
    d="M 568.06 331.49A 1.83 1.83 87.39 0 1 566.55 330.11Q 564.54 321.75 560.91 308.8Q 558.34 299.63 554.67 288.85Q 551.36 279.14 548.69 268.82C 546.15 258.98 546.63 248.54 547.99 238.61A 2.38 2.24 61.75 0 1 548.13 238.09L 550.2 232.54A 3.69 2.72 -28.22 0 1 550.49 231.93C 553.01 227.6 554.71 223.38 557.37 219.38Q 562.23 212.08 570.4 205.93A 4.36 3.83 10.78 0 1 571.23 205.44Q 573.95 204.28 576.12 202.46A 3.96 3.87 10.66 0 1 576.93 201.92C 582.97 198.81 589.07 195.33 596 193.39Q 598.9 192.58 604.96 190.67C 607.97 189.71 613.91 189.06 618.06 188.89Q 627.43 188.5 638.73 188.58A 0.94 0.94 -60.92 0 1 639.67 189.52L 639.67 333.37A 0.67 0.67 1.23 0 1 638.97 334.04Q 616.01 333.08 584.76 332.69Q 575.23 332.57 568.06 331.49Z"
    fill="#b5663e"
  />
  <path
    d="M 554.57 246.09C 551.79 241.88 555.03 232.58 557.6 228.62Q 572.4 205.88 598.49 198.19Q 610.43 194.68 625.78 194.11C 635.58 193.74 634.88 199.92 634.89 208.27Q 634.9 222.07 634.83 242.52C 634.81 249.05 630.82 249.8 624.89 249.79Q 578.43 249.71 563.27 249.81Q 559.34 249.83 555.31 246.87A 3.01 2.93 -89.25 0 1 554.57 246.09Z"
    fill="#f2edce"
  />
  <path
    d="M 649.34 197.75Q 651.08 194.59 653.96 194.39C 662.83 193.79 674.78 195.07 682.88 197.66Q 704.2 204.49 717.6 221.41Q 721.32 226.12 727.74 236.02Q 730.4 240.12 729.6 244.33Q 728.61 249.58 722.92 249.68Q 690.21 250.24 659.21 249.87C 653.11 249.8 649 249.11 648.97 242.36Q 648.81 214.57 649.01 198.99A 2.66 2.64 -30.31 0 1 649.34 197.75Z"
    fill="#f2edce"
  />
  <path
    d="M 501.52 250.2C 494.36 250.21 489.49 245.89 492.04 238.51Q 493.51 234.24 496.52 229.78Q 512.04 206.76 538.46 197.68C 540.97 196.81 545.23 196.31 547.73 197.42C 553.24 199.87 555.13 205.56 551.76 210.78Q 549.18 214.79 545.71 220.47Q 540.54 228.91 537.81 241.6Q 536.1 249.54 527.49 249.72Q 503.9 250.2 501.52 250.2Z"
    fill="#f2edce"
  />
  <path
    d="M 763.22 345.95A 0.29 0.27 -67.33 0 1 762.9 346.09L 762.55 345.98A 0.4 0.39 24.58 0 1 762.33 345.39Q 763.15 344.08 763.35 343.01A 4.67 4.58 71.77 0 1 764.47 340.74C 770.59 333.96 777.4 326.75 782.24 318.1Q 785.28 312.65 790.69 303.85A 1.33 1.31 45.33 0 0 790.69 302.46Q 785.29 293.71 776.77 281.45C 770.99 273.13 763.11 262.85 758 252.15A 0.49 0.49 -78.61 0 1 758.81 251.61C 763.38 256.77 767.44 261.71 771.65 267.85Q 783.35 284.91 792.27 297.38Q 792.83 298.17 792.99 298.91Q 793.16 299.69 793.68 299.76A 1.02 1 -68.02 0 0 794.65 299.34Q 797.29 295.59 798.06 294.83Q 807.15 285.83 815.1 281.62Q 828.94 274.3 845.72 274.48A 0.32 0.31 67.58 0 0 845.94 273.94L 845.59 273.59A 0.53 0.51 70.13 0 0 845.28 273.44Q 819.96 270.38 799.77 271.47Q 797.78 271.57 791.09 271.15Q 783.98 270.69 779.74 266.07Q 775.6 261.55 772.86 258.05A 0.56 0.56 -17.02 0 1 773.34 257.15Q 804.12 259.47 832.5 265.97Q 846.46 269.17 864.75 277.49A 1 0.99 78.99 0 1 864.97 277.64L 865.81 278.49A 0.38 0.38 70.72 0 1 865.5 279.14Q 856.97 278.13 849.88 277.36C 840.95 276.4 833.83 278.15 824.09 281.36Q 811.93 285.37 804.86 292.86Q 795.92 302.32 793.34 306.6Q 792.62 307.8 784.81 320.58Q 776.43 334.31 764.01 344.76Q 763.72 345 763.22 345.95Z"
    fill="#af995d"
  />
  <path
    d="M 660.68 263.08A 1.89 1.89 0 0 1 658.8 264.97L 649.84 265.01A 1.89 1.89 0 0 1 647.94 263.12L 647.94 262.88A 1.89 1.89 0 0 1 649.82 260.99L 658.78 260.95A 1.89 1.89 0 0 1 660.68 262.84L 660.68 263.08Z"
    fill="#af995d"
  />
  <path
    d="M 563.9 263.12A 1.87 1.87 0 0 1 562.01 264.97L 552.83 264.89A 1.87 1.87 0 0 1 550.98 263L 550.98 262.8A 1.87 1.87 0 0 1 552.87 260.95L 562.05 261.03A 1.87 1.87 0 0 1 563.9 262.92L 563.9 263.12Z"
    fill="#af995d"
  />
  <path
    d="M 888.48 274.07C 886.2 276.25 884.02 277.05 882.98 280.66Q 882.38 282.73 883.25 284.83C 885.5 290.32 889.28 290.97 894.33 292.6A 0.63 0.62 -37.69 0 1 894.17 293.82C 890.93 294.02 889.47 293.02 886.57 291.1C 882.59 288.47 877.07 281.78 881.36 277.1Q 883.37 274.91 886.54 273.4Q 887.44 274.28 888.48 274.07Z"
    fill="#af995d"
  />
  <!-- Right wheel cluster and tire-side shading. -->
  <path
    d="M 859.57 385.72Q 846.59 389.34 832.59 387.41Q 828.87 386.89 826.57 385.29Q 816.03 380.06 809.95 371.27C 799.93 356.79 800.33 337.84 811.25 323.71Q 817.47 315.67 828.23 310.87Q 844.65 303.55 861.65 311.95Q 868.3 315.24 873.01 320.09C 885.88 333.31 888.62 355.61 877.63 370.98Q 873.25 377.11 867.73 381.48Q 865.92 382.91 859.57 385.72Z"
    fill="#7a7840"
  />
  <path
    d="M 869.71 348.34A 25.96 25.96 0 0 1 843.75 374.3A 25.96 25.96 0 0 1 817.79 348.34A 25.96 25.96 0 0 1 843.75 322.38A 25.96 25.96 0 0 1 869.71 348.34Z"
    fill="#f2edce"
  />
  <path
    d="M 795.03 323.16Q 789.87 339.28 783.97 354.99Q 781.87 360.57 779.16 364.9C 776.28 369.49 767.81 369.68 763.64 368.62A 3.01 2.99 4.71 0 1 761.4 365.99C 761.07 362.21 763.03 357.37 764.02 353.71A 2.77 2.75 -55.61 0 0 763.58 351.33Q 762.48 349.83 762.07 346.96Q 770.55 346.36 776.14 341.87Q 781.91 337.23 787.55 333.38Q 789.52 332.03 790.39 329.81Q 791.77 326.27 795.03 323.16Z"
    fill="#7a7840"
  />
  <path
    d="M 834.25 336.52A 15.06 14.83 -128.2 0 1 855.21 339.19A 15.06 14.83 -128.2 0 1 852.87 360.19A 15.06 14.83 -128.2 0 1 831.91 357.53A 15.06 14.83 -128.2 0 1 834.25 336.52Z"
    fill="#7a7840"
  />
  <!-- Left wheel cluster and tire-side shading. -->
  <path
    d="M 483.76 339.28Q 478.79 355.16 490.33 366.7Q 496.89 373.27 505.25 374.03C 523.53 375.69 537.99 359.81 533.39 341.48Q 541.24 340.99 548.48 343.14Q 549.03 344.63 549.08 347Q 549.5 365.88 535.92 378.17Q 532.26 381.48 526.02 384.95Q 519.72 388.03 511 388.57Q 500.4 389.22 492.24 385.91Q 466.12 373.18 467.79 344.72C 467.92 342.45 468.56 340.18 468.98 337.78Q 476.42 337.82 483.76 339.28Z"
    fill="#7a7840"
  />
  <path
    d="M 495.5 340.42Q 491.41 348.46 494.9 354.92C 504.26 372.23 529.6 359.97 521.56 341.33Q 527.5 340.55 533.39 341.48C 537.99 359.81 523.53 375.69 505.25 374.03Q 496.89 373.27 490.33 366.7Q 478.79 355.16 483.76 339.28Q 490.22 338.59 495.5 340.42Z"
    fill="#f2edce"
  />
  <path
    d="M 521.56 341.33C 529.6 359.97 504.26 372.23 494.9 354.92Q 491.41 348.46 495.5 340.42Q 510.98 340.41 515.24 340.54Q 517.4 340.6 521.56 341.33Z"
    fill="#7a7840"
  />
  <!-- Lower wordmark (letters converted to outline paths, not text nodes). -->
  <path
    d="M 799.23 520.65L 769.58 520.54Q 769 520.02 769.4 519.32Q 769.64 518.89 770.41 518.47C 774.07 516.43 775.35 514.13 775.39 509.55Q 775.69 470.6 775.61 446.19A 2.73 2.58 35.17 0 0 775.4 445.16Q 773.96 441.77 770.08 441.12A 1.22 1.22 -58.41 0 1 769.56 438.93Q 771.02 437.85 773.31 437.3Q 781.59 435.3 790.3 433.04Q 790.81 432.91 791.97 432.95A 1.41 1.41 1.27 0 1 793.32 434.36L 793.32 465.77A 0.45 0.45 72.13 0 0 794.03 466.14Q 797.14 463.85 799.46 462.44C 810.2 455.9 826.96 456.84 830.53 471.49Q 831.53 475.57 831.43 481.01Q 831.13 498.68 831.56 512.88A 2.55 2.49 33.04 0 0 831.75 513.73C 832.86 516.25 835.6 517.47 837.66 518.84A 0.94 0.94 61.89 0 1 837.14 520.56L 808.82 520.55A 0.93 0.93 28.19 0 1 808.3 518.84C 811.46 516.75 813.56 515.84 813.63 512Q 813.91 495.99 813.99 483.25Q 814.04 475.4 813.32 471.71Q 812.35 466.7 806.5 466.17Q 798.95 465.49 793.69 471.1A 1.29 1.28 -23.86 0 0 793.35 471.97Q 793.31 483.01 793.36 511.43Q 793.37 513.32 794.03 514.84Q 794.54 516.01 796.5 517.07Q 799.55 518.72 799.23 520.65Z"
    fill="#f2edce"
  />
  <path
    d="M 764.44 502.54L 764.13 513.49A 3.68 3.66 -18.83 0 1 762.76 516.26C 760.17 518.36 757.22 519.25 753.94 520.24C 738.77 524.82 722.57 522.88 709.69 513.55C 695.65 502.25 691.47 482.51 696.15 465.86C 703.48 439.73 730.54 430.57 754.7 438.53Q 758.77 439.87 761.93 441.82A 1.43 1.43 14.52 0 1 762.62 442.99L 763.25 458.15A 1.14 1.13 -87.05 0 1 761.96 459.32Q 760.58 459.12 759.51 457.23Q 758.91 456.17 754.3 447.72C 751.22 442.1 745.89 439.62 739.58 439.85C 721.44 440.5 715.25 457.77 714.35 473.35C 713.43 489.14 716.38 514.55 736.21 517.78Q 738.29 518.12 744.45 517.8Q 752.81 517.37 756.11 509.61Q 759.48 501.67 760.77 498.54Q 761.35 497.12 762.2 496.77A 1.42 1.42 -12.32 0 1 764.16 498.02Q 764.25 500.11 764.44 502.54Z"
    fill="#f2edce"
  />
  <path
    d="M 210.54 521.09L 179.47 521.2L 174.32 520.9A 1.46 1.46 31.81 0 1 173.68 518.17Q 178.77 515.27 178.84 509.25Q 179.24 475.34 178.84 448.16Q 178.78 444.52 177.92 443.39Q 176.67 441.76 173.66 440.62A 1.08 1.07 43.64 0 1 173.61 438.63Q 174.62 438.18 176.48 438.15C 185.77 438.01 194.68 437.49 203.14 438.19A 1.06 1.06 -61.55 0 1 203.7 440.08C 201.42 441.86 197.75 442.42 197.78 446.81Q 197.9 462.79 197.36 497.94C 197.26 503.78 197.57 509.41 197.73 515.19A 1.41 1.4 -0.21 0 0 199.11 516.55C 206.11 516.68 213.3 517.34 220.17 515.2C 223.01 514.32 224.4 513.15 225.86 510.47Q 228.37 505.84 230.28 500.3Q 230.93 498.41 232.26 497.79A 1.66 1.65 -11.87 0 1 234.63 499.33L 234.07 519.21A 1.84 1.84 -89.2 0 1 232.23 521L 210.54 521.09Z"
    fill="#bd8136"
  />
  <path
    d="M 457.96 491.54C 453.65 505.55 444.19 515.82 429.44 518.85Q 426.28 519.49 423.1 520.03Q 420.12 520.54 416.69 520.59Q 402.74 520.83 388.79 520.91L 385.01 520.65A 0.84 0.84 25.97 0 1 384.5 519.18C 387.25 516.74 389.89 514.03 390.04 509.97C 390.18 506.13 390.64 501.03 390.62 497.58Q 390.53 483.2 390.94 465.5Q 391.02 462.09 390.84 455.03C 390.65 447.9 391 443.14 384.49 440.01A 0.8 0.8 -39.32 0 1 384.64 438.51Q 386.01 438.16 386.81 438.1Q 396.37 437.4 419.3 438.12Q 424.25 438.27 426.54 438.98C 428.82 439.69 433.49 440.22 436 441.28Q 443.21 444.31 448.68 449.4C 455.71 455.93 458.96 467.44 459.11 477.24Q 459.22 484.49 457.96 491.54Z"
    fill="#bd8136"
  />
  <path
    d="M 440.54 479.21C 440.52 486.99 439.02 495.67 436.91 502.21C 432.77 515.02 421.81 517.28 409.89 516.75A 1.06 1.06 0.64 0 1 408.88 515.72Q 408.38 497.37 408.42 479.14Q 408.46 460.92 409.05 442.56A 1.06 1.06 -0.38 0 1 410.06 441.54C 421.98 441.06 432.93 443.37 437.01 456.2C 439.1 462.75 440.56 471.44 440.54 479.21Z"
    fill="#837e55"
  />
  <path
    d="M 352.51 505.03C 350.13 518.59 336.78 523.37 324.1 522.2C 317.18 521.57 312.56 521 306.95 518.31Q 304.59 517.18 304.74 514.51Q 305.1 508.07 305.68 501.73Q 306.03 500.63 306.49 500.65Q 307.97 500.7 308.73 502.22Q 311.39 507.5 313.23 511.28Q 314.02 512.91 316.96 515.31C 321.64 519.13 333.73 519.51 337.07 513.48C 340.93 506.51 336.12 501.71 329.72 499.55C 321.89 496.9 313.54 494.51 309.31 490.02C 304.59 485.01 303.4 477.64 306.42 471.34Q 310.39 463.05 318.77 460.44Q 331.56 456.45 344.75 461.84Q 346.31 462.48 346.96 463.57A 1.89 1.88 31.26 0 1 347.21 464.58Q 346.99 470.18 347.51 475.7Q 347.61 476.79 346.79 477.23A 2.09 2.03 63.57 0 1 343.97 476.24Q 343.4 475.02 342.29 472.23Q 337.65 460.56 325.28 463.22C 320.48 464.26 317.42 468.24 318.55 473.18Q 319.51 477.38 324.19 479.58C 330.86 482.7 337.84 484.25 345.06 487.99Q 350.64 490.89 351.84 497.29Q 352.63 501.55 352.51 505.03Z"
    fill="#bd8136"
  />
  <path
    d="M 520.91 509.08C 513.65 520.22 501.6 524.05 488.84 521.58C 473.88 518.68 464.28 504.99 465.61 489.97C 465.36 478.07 471.78 465.89 483.06 461.06C 493.54 456.59 506.73 458.07 515.1 466.15C 520.01 470.89 522.13 481.16 520.97 487.94A 1.25 1.23 77.48 0 1 520.48 488.72Q 519.38 489.52 517 489.46Q 513.61 489.38 496.17 489.65C 492.3 489.71 487.92 489.17 484.55 489.16A 1.11 1.11 88.76 0 0 483.44 490.32L 483.77 498.24A 2.83 2.79 -57.79 0 0 483.98 499.2Q 486.92 506.06 489.28 508.76C 491.02 510.74 495.24 512.5 498.33 512.87C 505.62 513.74 512.63 511.42 518.36 506.93Q 519.08 506.37 520.12 506.65Q 521.65 507.07 520.91 509.08Z"
    fill="#bd8136"
  />
  <path
    d="M 1028.18 517.49Q 1024.18 521.43 1017.48 522.08Q 1007.27 523.07 1003.89 513.87A 0.45 0.44 53.69 0 0 1003.12 513.75C 995.58 523.48 981.2 525.36 972.01 516.88Q 964.56 507.62 970.87 496.86Q 976.93 491.3 985.12 488.74L 1002.17 485.76A 1.07 1.05 86.67 0 0 1003.05 484.76Q 1003.4 477.25 1002.56 469.83Q 1001.97 464.63 997.63 463.36Q 992.53 461.87 989.37 464.74C 985.99 467.81 987.47 474.72 984.99 478.27Q 982.95 481.18 980.03 481.6C 973.07 482.59 969.9 477.42 971.53 471.25C 973.11 465.33 979.8 461.27 985.52 459.78Q 995.63 457.14 1005.61 459.65Q 1017.08 462.52 1019.57 474.11Q 1020.29 477.49 1020.34 484.25Q 1020.5 506.68 1020.51 507C 1020.62 510.7 1020.13 513.58 1024.19 514.04Q 1026.18 514.27 1028.67 514.48A 0.73 0.73 -72.95 0 1 1029.24 515.56L 1028.18 517.49Z"
    fill="#f2edce"
  />
  <path
    d="M 294.37 512.76Q 288.25 519.78 278.75 521.47C 265.27 523.87 249.64 519.51 243.95 506.05Q 238.26 492.62 242.79 478.53C 246.37 470.4 251.89 463.34 260.52 460.5Q 269.25 457.63 278.25 459.69C 284.87 461.2 289.81 464.06 293.39 469.92Q 298.1 477.64 296.78 487.79A 1.85 1.85 -86.28 0 1 294.95 489.4L 260.41 489.4A 1.23 1.23 -89.04 0 0 259.18 490.59Q 258.96 498.37 262.28 505.17C 266.4 513.58 278.25 514.97 285.91 511.43Q 290.63 509.25 294.73 506.21A 1.08 1.07 -25.13 0 1 296.42 506.82C 296.91 508.86 295.08 510.91 294.37 512.76Z"
    fill="#bd8136"
  />
  <path
    d="M 898.05 509.96Q 892.73 515.85 890.61 517.35C 884.33 521.8 874.65 522.92 867.15 521.95Q 857.97 520.77 851.06 514.19Q 844.93 507.91 843.07 499.44C 839.84 484.74 845.22 469.99 858.3 462.46C 867.74 457.03 880.68 457.26 889.46 463.96C 897.02 469.74 899.6 478.32 898.69 487.98A 1.65 1.63 2.68 0 1 897.05 489.46L 861.19 489.46A 0.53 0.53 88.46 0 0 860.66 490.02C 860.81 493.8 861.73 498.89 862.88 502.14C 865.49 509.57 871.68 513.11 879.46 512.89C 885.64 512.71 890.85 510.9 894.99 506.52Q 896.32 505.1 898.09 506A 1.58 1.57 29.45 0 1 898.72 508.24Q 898.21 509.04 898.05 509.96Z"
    fill="#f2edce"
  />
  <path
    d="M 585.2 521.34L 572.49 521.6A 2.14 2.14 88.22 0 1 570.31 519.55L 570.13 515.12A 0.61 0.61 -27.66 0 0 569.04 514.78C 564.39 520.94 554.91 522.56 547.48 521.99Q 536.23 521.13 532.92 509.87Q 531.83 505.34 531.92 500.26Q 532.2 484.63 531.94 471.78C 531.86 468.11 530.94 466.84 527.63 465.54A 1.22 1.21 -54.3 0 1 527.3 463.48Q 527.8 463.05 528.82 462.8Q 534.86 461.28 547.72 459.75A 1.73 1.73 -4.62 0 1 549.65 461.39Q 550.1 472.15 549.53 482.74Q 549.01 492.43 549.23 496Q 549.63 502.37 549.91 508.15Q 550.03 510.72 552.61 512.62A 2.94 2.87 69.82 0 0 553.62 513.1Q 561.2 515.04 567.91 511.4A 2.6 2.59 -13.36 0 0 569.26 509.21Q 569.91 490.28 569.35 471.41Q 569.35 471.26 569.37 470.17C 569.43 467.26 566.86 466.42 564.41 465.02A 0.68 0.68 -48.11 0 1 564.35 463.88Q 565.78 462.83 567.69 462.48Q 575.59 461.01 585.15 459.8A 1.38 1.37 86.34 0 1 586.7 461.17L 586.7 512.36A 5.47 5.43 22.66 0 0 588.3 516.21L 591.45 519.36A 1.07 1.07 -23.43 0 1 590.73 521.18L 585.2 521.34Z"
    fill="#bd8136"
  />
  <path
    d="M 663.36 521.04L 631.38 521.1Q 630.77 520.79 630.8 519.91A 1.21 1.18 -20.29 0 1 631.2 519.07Q 634.41 516.27 634.28 514.02L 624.03 496.76A 0.67 0.67 45.96 0 0 622.88 496.74L 612.39 513.39C 610.82 516.46 613.89 517.39 615.7 518.91A 1.39 1.39 -46.97 0 1 615.77 520.97Q 615.32 521.4 613.95 521.39L 597.56 521.22Q 596.77 520.46 596.67 519.84Q 596.57 519.2 597.56 518.61Q 606.34 513.39 612.04 505.25C 614.92 501.15 617.15 496.88 620.63 493.7A 0.59 0.58 -38.08 0 0 620.73 492.95L 605.1 469.3A 13.52 13.47 -85.95 0 0 602.93 466.79Q 600.07 464.22 596.12 462.38Q 595.9 462.28 595.78 462.06A 1.13 1.13 74.04 0 1 596.71 460.38Q 609.87 459.84 625.5 460.48Q 627.29 460.55 627.99 460.74A 0.91 0.9 -54.45 0 1 628.26 462.37L 625.13 464.44A 2.08 2.07 68.93 0 0 624.23 466.48Q 624.58 468.7 625.86 470.39Q 629.61 475.39 634.14 482.33A 0.76 0.76 38.94 0 0 635.48 482.19Q 636.32 480.02 638.07 477.98A 3.3 3.17 -14.07 0 0 638.61 477.12Q 639.29 475.5 644.07 468.4Q 645.32 466.55 643.96 464.56A 1.6 1.59 82.11 0 0 643.2 463.98Q 640.86 463.18 640.31 462.7A 1.26 1.26 -26.65 0 1 641.04 460.5Q 645.48 460.14 656 460.11Q 657.9 460.1 659.29 460.6A 1.23 1.23 45.75 0 1 659.26 462.93C 654.25 464.6 651.67 466.54 648.34 470.93Q 642.78 478.25 637.15 485.48A 1.43 1.43 46.34 0 0 637.11 487.19Q 645.36 498.77 653.23 510.52Q 655.94 514.56 661.5 518.01Q 663.61 519.32 663.36 521.04Z"
    fill="#bd8136"
  />
  <path
    d="M 1054.84 494.53Q 1053.83 503.45 1056.11 511.25Q 1059.09 514.84 1065.22 514.09Q 1070.87 513.41 1074.15 510.82A 1.23 1.23 -19.42 0 0 1074.61 509.86L 1074.61 470.15A 3.66 3.64 -73.38 0 0 1072.97 467.1L 1069.58 464.86A 1.03 1.03 57.43 0 1 1069.99 462.99Q 1082.62 461.06 1088.43 460.13Q 1090.6 459.78 1091.38 460.17A 0.95 0.94 -78.76 0 1 1091.89 460.94Q 1092.24 465.9 1092.2 473.5Q 1092.07 500.47 1092.38 513.52C 1092.44 516.26 1096.03 516.99 1097.61 518.35A 1.36 1.36 -25.87 0 1 1096.78 520.74L 1077.37 521.54A 1.97 1.97 -69.6 0 1 1075.32 519.65L 1075.13 514.99A 0.57 0.57 68.02 0 0 1074.19 514.59Q 1066 521.82 1055.18 522.37Q 1046.38 522.31 1040.95 516.61C 1036.54 509.91 1036.67 504.13 1036.75 495.5Q 1036.85 484.34 1036.88 471.25C 1036.89 466.91 1033.77 465.96 1030.98 464.64A 0.9 0.89 -41.31 0 1 1031.09 462.98Q 1032.9 462.39 1034.25 462.22Q 1041.94 461.21 1049.74 459.97Q 1050.9 459.79 1053.06 460.06A 1.84 1.83 4.77 0 1 1054.67 461.95Q 1054.05 478.31 1054.84 494.53Z"
    fill="#f2edce"
  />
  <path
    d="M 1164.27 520.74L 1136.3 520.58Q 1135.27 518.74 1138.81 517.24A 1.81 1.72 -77.98 0 0 1139.41 516.83Q 1141.04 515.15 1139.77 513Q 1134.19 503.53 1128.93 496.39A 0.34 0.33 -45.88 0 0 1128.38 496.4L 1117.39 513.02A 2.62 2.62 31.61 0 0 1118.28 516.74L 1121.78 518.73A 1.07 1.07 -57.79 0 1 1122.13 520.28Q 1122.12 520.29 1121.8 520.51A 0.34 0.32 -62.62 0 1 1121.6 520.58L 1116.95 520.75L 1104.95 520.73L 1103.17 520.57A 1.17 1.17 -52.36 0 1 1102.88 518.31C 1106.96 516.82 1109.7 514.95 1112.46 511.23Q 1119.79 501.36 1125.56 493.3A 1.11 1.09 46.73 0 0 1125.59 492.07Q 1117.12 478.52 1110.21 468.34Q 1107.49 464.34 1102.73 462.79A 1.26 1.26 -44.05 0 1 1102.77 460.38Q 1103.84 460.07 1104.73 460.1Q 1118.27 460.47 1132.99 460.13Q 1133.86 460.11 1134.48 460.78A 1.05 1.05 -33 0 1 1134.12 462.45Q 1131.95 463.4 1130.74 464.11A 1.63 1.6 -1.17 0 0 1130.16 464.7Q 1129.02 466.72 1130.54 468.99Q 1134.81 475.38 1139.74 482.5A 0.31 0.31 -45.94 0 0 1140.25 482.49L 1150.24 467.39A 1.93 1.92 33.4 0 0 1149.69 464.73L 1145.93 462.25A 0.94 0.94 -36.2 0 1 1146.19 460.57C 1148.9 459.79 1154.96 460.17 1164.26 460.17Q 1165.44 460.17 1165.83 460.71A 1.31 1.25 -26.91 0 1 1165.15 462.64Q 1159.14 464.71 1155.57 469.29Q 1152.77 472.87 1143.26 485.81A 1.27 1.27 -43.86 0 0 1143.23 487.27Q 1151.82 500.07 1160.83 512.91C 1161.92 514.47 1163.77 516.34 1166.06 517.24Q 1167.67 517.87 1168.66 518.82A 1.04 1.04 65.71 0 1 1167.98 520.62L 1164.27 520.74Z"
    fill="#f2edce"
  />
  <path
    d="M 941.5 501.26L 953.76 467.68A 2.9 2.9 -68.58 0 0 952.16 464.01L 948.24 462.36A 0.28 0.25 75.13 0 1 948.15 462.3Q 947.65 461.84 947.58 461.47A 1.1 1.02 -5.79 0 1 948.65 460.25Q 957.47 460.03 966.41 460.33A 1.16 1.12 60.91 0 1 966.97 460.5L 967.43 460.77A 1.02 1.02 51.2 0 1 967.23 462.62C 963.9 463.71 959.97 464.69 958.68 468.25Q 949.36 493.86 942.39 511.64Q 941.83 513.07 939.88 519.44A 2.46 2.45 8.47 0 1 937.53 521.17L 931.54 521.17A 1.7 1.69 -11.08 0 1 929.97 520.12Q 916.65 487.25 909.81 470.71Q 907.54 465.21 902.17 462.79A 1.23 1.23 -48.45 0 1 902.04 460.62Q 902.56 460.3 903.76 460.31Q 922.95 460.37 927.5 460.17Q 929.63 460.08 932.02 460.37A 1.21 1.21 -58.87 0 1 932.56 462.56C 930.03 464.32 927.33 465.63 928.62 469.16Q 934.25 484.48 940.7 501.27A 0.43 0.43 -45.63 0 0 941.5 501.26Z"
    fill="#f2edce"
  />
  <path
    d="M 279.01 466.69Q 280.81 473.56 280.86 480.82A 0.21 0.21 37.84 0 1 280.45 480.87L 277.51 469.28A 3.01 3 -3.28 0 0 274.99 467.04L 268.47 466.18A 0.98 0.97 -64.16 0 0 267.65 466.47Q 263.21 471.14 262.58 474.32Q 261.43 480.11 259.54 485.85C 258.55 479.59 259.21 469.07 264.63 464.79C 268.95 461.39 275.88 461.88 279.01 466.69Z"
    fill="#7a7840"
  />
  <path
    d="M 503.88 485.38L 484.75 486.17A 0.85 0.85 86.47 0 1 483.87 485.39Q 483.25 477.43 485.3 470.09C 486.48 465.84 490.15 463.01 494.7 462.75Q 502.79 462.3 504.79 471.18Q 506.43 478.49 504.78 484.66A 0.97 0.96 6.03 0 1 503.88 485.38Z"
    fill="#837e55"
  />
  <path
    d="M 860.72 485.47Q 860.7 477.18 863.11 470.41Q 865.88 462.63 873.77 463.12C 883.64 463.74 882.51 477.5 882.38 484.2Q 882.34 486.27 880 486.13Q 870.37 485.54 861.4 486.1A 0.64 0.63 -1.71 0 1 860.72 485.47Z"
    fill="#837e55"
  />
  <path
    d="M 279.01 466.69C 281.87 472.29 281.46 478.82 280.59 484.74A 1.09 1.08 1.64 0 1 279.6 485.67Q 269.74 486.48 259.54 485.85Q 261.43 480.11 262.58 474.32Q 263.21 471.14 267.65 466.47A 0.98 0.97 -64.16 0 1 268.47 466.18L 274.99 467.04A 3.01 3 -3.28 0 1 277.51 469.28L 280.45 480.87A 0.21 0.21 37.84 0 0 280.86 480.82Q 280.81 473.56 279.01 466.69Z"
    fill="#837e55"
  />
  <path
    d="M 242.79 478.53Q 238.26 492.62 243.95 506.05C 249.64 519.51 265.27 523.87 278.75 521.47Q 288.25 519.78 294.37 512.76Q 294.79 514.07 292.96 516.39C 288.54 522 284.42 524.88 277.11 525.31Q 267.41 525.88 259.19 524.05C 251.01 522.23 248.13 516.61 243.91 509.65C 240.35 503.8 238.72 495.57 239.18 489.25Q 239.55 484.2 242.79 478.53Z"
    fill="#7a7840"
  />
  <path
    d="M 388.79 520.91Q 402.74 520.83 416.69 520.59Q 420.12 520.54 423.1 520.03Q 426.28 519.49 429.44 518.85C 444.19 515.82 453.65 505.55 457.96 491.54L 458.58 490.37A 0.55 0.55 -31.9 0 1 459.62 490.61Q 459.65 491.51 458.84 494.43C 455.67 506.02 447.99 512.99 438.6 519.05A 0.12 0.11 16.93 0 0 438.71 519.25C 444.14 517.07 447.83 513.04 452.35 508.1A 0.26 0.26 41.73 0 1 452.71 508.08L 452.72 508.09A 0.26 0.25 -50.64 0 1 452.75 508.45C 447.88 514.65 442.77 519.98 434.92 521.94Q 430.03 523.17 424.63 523.39Q 413.98 523.83 394.09 523.18C 390.86 523.07 388.06 523.1 385 522.07A 0.56 0.55 -36.11 0 1 385.17 520.99L 388.79 520.91Z"
    fill="#7a7840"
  />
  <path
    d="M 985.12 488.74Q 976.93 491.3 970.87 496.86Q 975.97 489.73 985.12 488.74Z"
    fill="#7a7840"
  />
  <path
    d="M 997.93 512.33L 991.98 512.79A 3.75 3.74 55.74 0 1 990.04 512.42Q 986.94 510.91 986.4 507.68C 985.41 501.73 987.03 495.93 993.06 493.5Q 995.84 492.38 996.84 490.96Q 999.11 489.75 1002.59 489.18A 0.45 0.45 85.66 0 1 1003.11 489.63L 1003.11 508.49A 1.63 1.61 69.1 0 1 1002.58 509.69Q 1000.41 511.64 997.93 512.33Z"
    fill="#837e55"
  />
  <path
    d="M 465.61 489.97C 464.28 504.99 473.88 518.68 488.84 521.58C 501.6 524.05 513.65 520.22 520.91 509.08C 520.14 516.22 514.83 520.55 508.74 523.43C 503.1 526.1 495.5 526.09 489.58 525.61C 476.99 524.6 468.56 516.37 465.33 503.77Q 463.32 495.96 465.61 489.97Z"
    fill="#7a7840"
  />
  <path
    d="M 996.84 490.96Q 995.84 492.38 993.06 493.5C 987.03 495.93 985.41 501.73 986.4 507.68Q 986.94 510.91 990.04 512.42A 3.75 3.74 55.74 0 0 991.98 512.79L 997.93 512.33Q 996.03 513.34 992.97 513.43C 988.16 513.58 986.03 510.83 985.49 506.22Q 984.14 494.68 996.84 490.96Z"
    fill="#7a7840"
  />
  <path
    d="M 1056.11 511.25Q 1053.83 503.45 1054.84 494.53L 1056.11 511.25Z"
    fill="#7a7840"
  />
  <path
    d="M 634.28 514.02Q 634.19 515.22 633.87 515.6A 0.39 0.39 52.61 0 1 633.22 515.51Q 629.61 507.86 623.88 501.51A 0.58 0.58 42.17 0 0 622.98 501.55L 612.69 515.17A 0.28 0.28 -32.48 0 1 612.19 515.06Q 612.05 514.45 612.39 513.39L 622.88 496.74A 0.67 0.67 45.96 0 1 624.03 496.76L 634.28 514.02Z"
    fill="#7a7840"
  />
  <path
    d="M 305.68 501.73Q 305.1 508.07 304.74 514.51Q 304.59 517.18 306.95 518.31C 312.56 521 317.18 521.57 324.1 522.2C 336.78 523.37 350.13 518.59 352.51 505.03L 353.13 499.34A 0.18 0.18 -47.8 0 1 353.49 499.32C 354.87 506.27 352.94 512.5 348.8 518.18Q 344.02 524.75 335.64 525.77C 326.6 526.86 305.29 528.44 303.75 515.05Q 302.94 508.06 305.68 501.73Z"
    fill="#7a7840"
  />
  <path
    d="M 709.69 513.55C 722.57 522.88 738.77 524.82 753.94 520.24C 757.22 519.25 760.17 518.36 762.76 516.26A 3.68 3.66 -18.83 0 0 764.13 513.49L 764.44 502.54Q 765.89 510.96 764.46 519.63A 1.29 1.27 -12.33 0 1 763.9 520.49C 753.26 527.49 736 527.59 724.06 525.06A 0.36 0.35 10.31 0 1 723.78 524.66L 723.78 524.65A 0.31 0.31 -84.09 0 1 724.11 524.38Q 737.49 525.21 742.6 524.67C 747.37 524.16 751.63 523.27 756 522.13Q 755.94 522.15 755.87 522.16Q 738.91 525.93 722.37 522.44Q 714.04 520.68 709.69 513.55Z"
    fill="#7a7840"
  />
  <path
    d="M 532.92 509.87Q 536.23 521.13 547.48 521.99C 554.91 522.56 564.39 520.94 569.04 514.78A 0.61 0.61 -27.66 0 1 570.13 515.12L 570.31 519.55A 2.14 2.14 88.22 0 0 572.49 521.6L 585.2 521.34L 590.65 521.62A 0.67 0.67 -48.96 0 1 590.74 522.95C 583.72 524.32 574.2 525.55 568.54 520.71A 1.57 1.52 -22.49 0 0 567.63 520.35Q 567.28 520.34 558.56 523.76Q 552.24 526.24 544.82 524.39Q 531.95 521.17 531.52 507.91A 0.06 0.05 27.19 0 1 531.62 507.88L 532.92 509.87Z"
    fill="#7a7840"
  />
  <path
    d="M 851.06 514.19Q 857.97 520.77 867.15 521.95C 874.65 522.92 884.33 521.8 890.61 517.35Q 892.73 515.85 898.05 509.96Q 896.27 517.57 889.4 521.41C 879.34 527.03 869.04 526.45 858.44 523.02Q 852.62 521.13 849.57 516.24A 0.25 0.25 3.98 0 1 849.95 515.91Q 855.92 520.85 863.05 522.65A 0.02 0.02 82.44 0 0 863.07 522.62Q 863.02 522.51 862.93 522.41Q 862.89 522.36 862.82 522.35Q 862.44 522.3 858.51 520.73Q 853.25 518.63 851.06 514.19Z"
    fill="#7a7840"
  />
  <path
    d="M 931.79 522.87Q 933.73 522.32 937.97 522.7A 1.09 1.08 21.6 0 0 938.91 522.3C 941.66 518.85 942.47 514.84 943.66 510.19A 0.27 0.27 15.53 0 1 944 510L 944.55 510.17A 0.02 0.01 90 0 1 944.56 510.19L 941.08 521.61A 1.76 1.76 87.06 0 1 940.08 522.72Q 937.57 523.76 931.82 523.26A 0.2 0.2 -49.72 0 1 931.79 522.87Z"
    fill="#7a7840"
  />
  <path
    d="M 1028.18 517.49C 1027.42 528.32 1011.9 524.42 1005.1 523.63C 1000.48 523.08 993.44 525.13 989.3 525.48Q 981.97 526.09 975.34 523.04C 972.86 521.9 971.3 520.12 970.02 517.73A 0.25 0.25 11.52 0 1 970.43 517.46C 972.25 519.7 973.72 522.26 975.79 522.34A 0.11 0.1 47.16 0 0 975.78 522.13Q 975.74 522.12 975.5 522.1A 0.62 0.62 68.67 0 1 975.09 521.92Q 972.95 519.73 972.01 516.88C 981.2 525.36 995.58 523.48 1003.12 513.75A 0.45 0.44 53.69 0 1 1003.89 513.87Q 1007.27 523.07 1017.48 522.08Q 1024.18 521.43 1028.18 517.49Z"
    fill="#7a7840"
  />
  <path
    d="M 1040.95 516.61Q 1046.38 522.31 1055.18 522.37Q 1058.37 523.84 1063.26 522.49Q 1056.44 525.43 1048.09 522.91Q 1042.29 521.16 1040.95 516.61Z"
    fill="#7a7840"
  />
  <path
    d="M 1164.27 520.74L 1166.41 520.97A 0.54 0.54 -66.75 0 1 1166.76 521.85Q 1166.19 522.53 1165.29 522.59Q 1155.01 523.26 1138.53 522.39A 2.62 2.51 60.25 0 1 1137.38 522.05Q 1135.67 521.07 1136.3 520.58L 1164.27 520.74Z"
    fill="#7a7840"
  />
  <path
    d="M 769.58 520.54L 799.23 520.65Q 797.29 522.9 794.33 523.33Q 782.55 525.06 773.13 522.87Q 771.5 522.49 769.58 520.54Z"
    fill="#7a7840"
  />
  <path
    d="M 663.36 521.04Q 663.59 522.9 660.58 523.03Q 647.04 523.62 632.09 523Q 631.48 522.97 631.03 522.57Q 630.63 522.21 631.38 521.1L 663.36 521.04Z"
    fill="#7a7840"
  />
  <path
    d="M 1116.95 520.75L 1120.6 521.15A 0.22 0.22 43.83 0 1 1120.61 521.59Q 1112.61 522.82 1104.15 522.28A 0.38 0.13 -2.65 0 1 1103.88 522.2Q 1103.86 522.17 1103.82 522.16A 0.04 0.03 -35.78 0 1 1103.84 522.1Q 1107.01 521.64 1113.61 521.89A 0.01 0 48.56 0 0 1113.61 521.88Q 1109.18 521.97 1104.95 520.73L 1116.95 520.75Z"
    fill="#7a7840"
  />
  <path
    d="M 210.54 521.09L 232.5 521.2A 0.32 0.32 -59.18 0 1 232.65 521.8Q 230.65 522.92 228.21 522.96Q 220.98 523.07 211.56 523.33C 200.46 523.65 188.11 523.04 177.51 523.13Q 176.04 523.14 174.4 522.29A 0.54 0.54 -31.51 0 1 174.65 521.27L 179.47 521.2L 210.54 521.09Z"
    fill="#7a7840"
  />
  <path
    d="M 613.95 521.39L 615.09 521.55A 0.72 0.72 45.03 0 1 615.09 522.98Q 605.24 524.37 597.56 521.22L 613.95 521.39Z"
    fill="#7a7840"
  />
  <path
    d="M 831.45 521.94A 0.32 0.32 0 0 1 831.13 522.27L 811.87 522.43A 0.32 0.32 0 0 1 811.55 522.12L 811.55 522.08A 0.32 0.32 0 0 1 811.87 521.75L 831.13 521.59A 0.32 0.32 0 0 1 831.45 521.9L 831.45 521.94Z"
    fill="#7a7840"
  />
  <path
    d="M 835.29 522.64C 827.84 525.18 818.46 524.19 810.8 522.85A 0.25 0.25 8.3 0 1 810.59 522.57L 810.59 522.56A 0.23 0.22 11.77 0 1 810.8 522.43L 832.04 522.27A 0.36 0.35 5.97 0 0 832.39 521.99Q 832.47 521.63 832.78 521.64Q 834.54 521.71 835.33 522.12A 0.28 0.28 49.54 0 1 835.29 522.64Z"
    fill="#7a7840"
  />
  <path
    d="M 1063.26 522.49Q 1063.41 522.45 1063.59 522.36Q 1063.6 522.35 1063.59 522.36Q 1063.41 522.45 1063.26 522.49Z"
    fill="#7a7840"
  />
</svg>
